<svg width="1920" height="742" viewBox="0 0 1920 742" fill="none" xmlns="http://www.w3.org/2000/svg">
<g clip-path="url(#clip0_683_859)">
<path d="M608.927 -73.3334C608.109 -81.5771 600.763 -87.5969 592.519 -86.7788C584.275 -85.9607 578.255 -78.6146 579.073 -70.3709L608.927 -73.3334ZM616.576 -15.2708L603.56 -7.81497L603.56 -7.81496L616.576 -15.2708ZM801.816 210.764L791.888 222.009H791.888L801.816 210.764ZM1389.53 437.522L1388.52 422.557L1389.53 437.522ZM1713.57 268.517L1699.76 262.656V262.656L1713.57 268.517ZM1676.28 84.562L1664.04 93.2285V93.2285L1676.28 84.562ZM1496.54 -69.2376L1503.13 -82.7149L1503.13 -82.715L1496.54 -69.2376ZM1311.43 -55.2401L1325.6 -50.2974L1325.6 -50.2976L1311.43 -55.2401ZM1332.66 63.5794L1319.52 70.8102L1319.52 70.8105L1332.66 63.5794ZM1533.76 243.533L1526.77 256.804V256.804L1533.76 243.533ZM2003.03 301.333L1998.84 286.931L1998.84 286.931L2003.03 301.333ZM2250.99 176.552C2251.29 168.274 2244.83 161.316 2236.55 161.012L2101.64 156.054C2093.36 155.75 2086.41 162.214 2086.1 170.493C2085.8 178.771 2092.26 185.729 2100.54 186.034L2220.46 190.44L2216.05 310.359C2215.75 318.638 2222.21 325.596 2230.49 325.9C2238.77 326.204 2245.73 319.74 2246.03 311.461L2250.99 176.552ZM579.073 -70.3709C581.461 -46.3072 592.941 -26.3536 603.56 -7.81497L629.592 -22.7267C618.494 -42.1002 610.583 -56.6438 608.927 -73.3334L579.073 -70.3709ZM603.56 -7.81496C651.67 76.1704 715.264 154.354 791.888 222.009L811.744 199.52C737.526 133.99 676.037 58.3523 629.592 -22.7267L603.56 -7.81496ZM791.888 222.009C952.104 363.468 1162.2 467.922 1390.54 452.488L1388.52 422.557C1170.75 437.275 968.216 337.674 811.744 199.52L791.888 222.009ZM1390.54 452.488C1455.74 448.082 1527.11 432.627 1588.42 404.089C1649.58 375.619 1702.35 333.335 1727.37 274.378L1699.76 262.656C1678.71 312.238 1633.22 350.147 1575.76 376.891C1518.45 403.566 1450.83 418.345 1388.52 422.557L1390.54 452.488ZM1727.37 274.379C1756.59 205.555 1730.45 135.116 1688.53 75.8955L1664.04 93.2285C1703.76 149.337 1722.87 208.207 1699.76 262.656L1727.37 274.379ZM1688.53 75.8955C1643.44 12.207 1579.04 -45.6254 1503.13 -82.7149L1489.96 -55.7603C1561.01 -21.0446 1621.64 33.3252 1664.04 93.2285L1688.53 75.8955ZM1503.13 -82.715C1473.7 -97.0953 1431.44 -111.912 1392.54 -113.798C1373.03 -114.744 1353.23 -112.498 1336.14 -104.288C1318.58 -95.8524 1304.71 -81.4833 1297.27 -60.1827L1325.6 -50.2976C1330.34 -63.8836 1338.58 -72.1781 1349.13 -77.2463C1360.16 -82.5408 1374.46 -84.639 1391.09 -83.8332C1424.44 -82.216 1462.57 -69.1445 1489.96 -55.7603L1503.13 -82.715ZM1297.27 -60.1829C1281.55 -15.1338 1298.71 32.9881 1319.52 70.8102L1345.81 56.3486C1325.89 20.146 1314.31 -17.9448 1325.6 -50.2974L1297.27 -60.1829ZM1319.52 70.8105C1363.93 151.52 1441.61 211.935 1526.77 256.804L1540.76 230.263C1458.21 186.768 1386.24 129.844 1345.81 56.3483L1319.52 70.8105ZM1526.77 256.804C1675.39 335.11 1849.01 361.803 2007.22 315.735L1998.84 286.931C1849.26 330.484 1683.65 305.555 1540.76 230.262L1526.77 256.804ZM2007.22 315.735C2037.84 306.821 2084.73 286.457 2129.87 262.792C2174.86 239.206 2219.96 211.377 2246.21 186.99L2225.79 165.012C2202.6 186.557 2160.46 212.882 2115.94 236.223C2071.57 259.485 2026.69 278.821 1998.84 286.931L2007.22 315.735Z" fill="#EBE9DF"/>
</g>
<defs>
<clipPath id="clip0_683_859">
<rect width="1920" height="742" fill="white"/>
</clipPath>
</defs>
</svg>
