<svg width="22" height="23" viewBox="0 0 22 23" fill="none" xmlns="http://www.w3.org/2000/svg">
<path d="M9.04461 16.4915C9.52062 16.1345 10.0996 15.9415 10.6946 15.9415H17.4168C17.9231 15.9415 18.3335 15.5311 18.3335 15.0249V7.69153C18.3335 7.18527 17.9231 6.77486 17.4168 6.77486H4.5835C4.07723 6.77486 3.66683 7.18527 3.66683 7.69153V15.0249C3.66683 15.5311 4.07723 15.9415 4.5835 15.9415H6.41683C6.92309 15.9415 7.3335 16.3519 7.3335 16.8582V17.7749L9.04461 16.4915ZM4.5835 17.7749C3.06471 17.7749 1.8335 16.5436 1.8335 15.0249V7.69153C1.8335 6.17275 3.06471 4.94153 4.5835 4.94153H17.4168C18.9356 4.94153 20.1668 6.17275 20.1668 7.69153V15.0249C20.1668 16.5436 18.9356 17.7749 17.4168 17.7749H10.6946C10.4963 17.7749 10.3033 17.8392 10.1446 17.9582L6.96683 20.3415C6.36253 20.7948 5.50016 20.3636 5.50016 19.6082V17.7749H4.5835Z" fill="white"/>
<path d="M7.33366 12.2749C7.83992 12.2749 8.25033 11.8645 8.25033 11.3582C8.25033 10.8519 7.83992 10.4415 7.33366 10.4415C6.8274 10.4415 6.41699 10.8519 6.41699 11.3582C6.41699 11.8645 6.8274 12.2749 7.33366 12.2749Z" fill="white"/>
<path d="M11.0002 12.2749C11.5064 12.2749 11.9168 11.8645 11.9168 11.3582C11.9168 10.8519 11.5064 10.4415 11.0002 10.4415C10.4939 10.4415 10.0835 10.8519 10.0835 11.3582C10.0835 11.8645 10.4939 12.2749 11.0002 12.2749Z" fill="white"/>
<path d="M14.6667 12.2749C15.1729 12.2749 15.5833 11.8645 15.5833 11.3582C15.5833 10.8519 15.1729 10.4415 14.6667 10.4415C14.1604 10.4415 13.75 10.8519 13.75 11.3582C13.75 11.8645 14.1604 12.2749 14.6667 12.2749Z" fill="white"/>
</svg>
