<svg width="71" height="79" viewBox="0 0 71 79" fill="none" xmlns="http://www.w3.org/2000/svg">
<path d="M18.0059 57.421C15.6213 57.421 13.4185 56.9562 11.3977 56.0266C9.41722 55.0566 7.84095 53.6824 6.66885 51.904L7.45698 50.3278V56.6935H0V0H7.94199V30.2606L6.72947 28.6237C7.86116 26.8453 9.39701 25.4711 11.337 24.5011C13.2771 23.4907 15.5202 22.9855 18.0665 22.9855C21.1786 22.9855 23.9876 23.7534 26.4935 25.2893C28.9994 26.8251 30.9798 28.8864 32.4348 31.4731C33.9303 34.0598 34.678 36.9699 34.678 40.2032C34.678 43.3962 33.9505 46.3062 32.4955 48.9334C31.0405 51.5605 29.06 53.642 26.5541 55.1778C24.0483 56.6733 21.1988 57.421 18.0059 57.421ZM17.0965 50.1459C18.9153 50.1459 20.532 49.7215 21.9466 48.8727C23.3612 48.024 24.4524 46.8519 25.2204 45.3564C26.0287 43.861 26.4329 42.1433 26.4329 40.2032C26.4329 38.2632 26.0287 36.5657 25.2204 35.1107C24.4524 33.6152 23.3612 32.4431 21.9466 31.5944C20.532 30.7052 18.9153 30.2606 17.0965 30.2606C15.3586 30.2606 13.7823 30.685 12.3677 31.5337C10.9935 32.3825 9.90223 33.5748 9.09388 35.1107C8.32595 36.6061 7.94199 38.3036 7.94199 40.2032C7.94199 42.1433 8.32595 43.861 9.09388 45.3564C9.90223 46.8519 10.9935 48.024 12.3677 48.8727C13.7823 49.7215 15.3586 50.1459 17.0965 50.1459Z" fill="#004E71"/>
<path d="M54.7791 57.421C51.384 57.421 48.4134 56.6531 45.8671 55.1172C43.3208 53.5813 41.3403 51.4999 39.9257 48.8727C38.5111 46.2456 37.8038 43.3356 37.8038 40.1426C37.8038 36.8284 38.5111 33.8981 39.9257 31.3519C41.3808 28.7652 43.341 26.7241 45.8064 25.2286C48.3123 23.7332 51.1011 22.9855 54.1728 22.9855C56.7595 22.9855 59.0229 23.4099 60.9629 24.2586C62.9434 25.1074 64.6207 26.2795 65.9949 27.7749C67.3691 29.2704 68.4199 30.9881 69.1474 32.9281C69.8749 34.8277 70.2387 36.889 70.2387 39.112C70.2387 39.6778 70.1982 40.2639 70.1174 40.8701C70.077 41.4764 69.976 42.0018 69.8143 42.4464H44.3514V36.3838H65.328L61.5692 39.2332C61.9329 37.374 61.8319 35.7169 61.266 34.2619C60.7406 32.8069 59.8514 31.655 58.5985 30.8062C57.386 29.9575 55.9108 29.5331 54.1728 29.5331C52.5157 29.5331 51.0405 29.9575 49.7471 30.8062C48.4538 31.6146 47.4635 32.8271 46.7765 34.4438C46.1298 36.0201 45.8873 37.9399 46.0489 40.2032C45.8873 42.2241 46.15 44.0227 46.8371 45.5989C47.5646 47.1348 48.6154 48.3271 49.9896 49.1759C51.4042 50.0246 53.0209 50.449 54.8397 50.449C56.6585 50.449 58.1943 50.065 59.4473 49.2971C60.7406 48.5292 61.751 47.4986 62.4786 46.2052L68.9049 49.3577C68.2582 50.934 67.2478 52.3284 65.8736 53.5409C64.4994 54.7535 62.8625 55.7033 60.9629 56.3904C59.1037 57.0774 57.0424 57.421 54.7791 57.421Z" fill="#004E71"/>
<path d="M23.5375 12.2824C22.6822 12.2824 21.9103 12.0935 21.2218 11.7155C20.5438 11.3274 20.0014 10.8013 19.5946 10.1374C19.1982 9.47344 19 8.72778 19 7.90041C19 7.07303 19.1982 6.33248 19.5946 5.67875C19.991 5.01481 20.5334 4.49387 21.2218 4.11593C21.9103 3.738 22.6822 3.54903 23.5375 3.54903C24.1738 3.54903 24.7632 3.65628 25.3056 3.87079C25.848 4.08529 26.3122 4.38662 26.6982 4.77477C27.0841 5.15271 27.3605 5.60215 27.5274 6.12309L25.4934 6.9811C25.3473 6.56231 25.097 6.23034 24.7423 5.98519C24.3981 5.74004 23.9965 5.61747 23.5375 5.61747C23.1307 5.61747 22.7656 5.71451 22.4423 5.90858C22.1293 6.10266 21.879 6.37334 21.6912 6.72063C21.5139 7.06793 21.4252 7.46629 21.4252 7.91573C21.4252 8.36517 21.5139 8.76353 21.6912 9.11083C21.879 9.45812 22.1293 9.7288 22.4423 9.92288C22.7656 10.117 23.1307 10.214 23.5375 10.214C24.0069 10.214 24.4137 10.0914 24.758 9.84627C25.1022 9.60112 25.3473 9.26915 25.4934 8.85036L27.5274 9.7237C27.371 10.214 27.0998 10.6532 26.7138 11.0414C26.3279 11.4295 25.8637 11.736 25.3213 11.9607C24.7788 12.1752 24.1843 12.2824 23.5375 12.2824Z" fill="#004E71"/>
<path d="M28.4977 12.0986V0.5L30.8447 0.5V5.38764L30.5631 5.01992C30.7613 4.51941 31.0794 4.15169 31.5175 3.91675C31.9661 3.6716 32.4876 3.54903 33.0822 3.54903C33.7289 3.54903 34.2922 3.68182 34.772 3.9474C35.2623 4.21297 35.643 4.5858 35.9142 5.06588C36.1854 5.53575 36.3211 6.08733 36.3211 6.72063V12.0986L33.9741 12.0986V7.21093C33.9741 6.88407 33.9063 6.60317 33.7706 6.36823C33.6455 6.1333 33.4629 5.94944 33.223 5.81665C32.9935 5.68386 32.7223 5.61747 32.4094 5.61747C32.1069 5.61747 31.8357 5.68386 31.5958 5.81665C31.3558 5.94944 31.1681 6.1333 31.0325 6.36823C30.9073 6.60317 30.8447 6.88407 30.8447 7.21093V12.0986H28.4977Z" fill="#004E71"/>
<path d="M40.0969 12.2824C39.4814 12.2824 38.9494 12.1854 38.5009 11.9913C38.0524 11.7972 37.7081 11.5215 37.4682 11.1639C37.2283 10.7962 37.1083 10.3621 37.1083 9.86159C37.1083 9.39173 37.2179 8.97804 37.4369 8.62053C37.656 8.25281 37.9898 7.94637 38.4383 7.70123C38.8973 7.45608 39.4658 7.28243 40.1438 7.18029L42.7568 6.7666V8.45199L40.5663 8.83504C40.2325 8.89632 39.9769 9.00358 39.7996 9.15679C39.6222 9.2998 39.5336 9.50919 39.5336 9.78498C39.5336 10.0403 39.6327 10.2395 39.8309 10.3825C40.0291 10.5255 40.2742 10.597 40.5663 10.597C40.9522 10.597 41.2912 10.5153 41.5833 10.3519C41.8754 10.1885 42.0996 9.96885 42.2561 9.69305C42.423 9.40705 42.5064 9.09551 42.5064 8.75843V6.58274C42.5064 6.26609 42.3761 6.00051 42.1153 5.78601C41.8649 5.5715 41.5207 5.46425 41.0826 5.46425C40.6654 5.46425 40.2951 5.57661 39.9717 5.80133C39.6588 6.02605 39.4293 6.32227 39.2832 6.68999L37.4056 5.81665C37.5725 5.34678 37.8385 4.94331 38.2036 4.60623C38.5687 4.26915 39.0068 4.00868 39.5179 3.82482C40.0291 3.64096 40.5871 3.54903 41.1921 3.54903C41.9119 3.54903 42.5482 3.67671 43.101 3.93207C43.6539 4.18744 44.0815 4.54494 44.384 5.0046C44.697 5.45403 44.8534 5.98008 44.8534 6.58274V12.0986H42.6629V10.7503L43.1949 10.6583C42.9446 11.026 42.6681 11.3325 42.3656 11.5776C42.0631 11.8126 41.7241 11.9862 41.3486 12.0986C40.9731 12.2211 40.5558 12.2824 40.0969 12.2824Z" fill="#004E71"/>
<path d="M46.1629 12.0986V3.73289L48.3535 3.73289V5.74004L48.197 5.44893C48.3848 4.74413 48.6925 4.26915 49.1202 4.024C49.5583 3.76864 50.0746 3.64096 50.6692 3.64096L51.1699 3.64096V5.63279H50.4345C49.8608 5.63279 49.3966 5.80644 49.0419 6.15373C48.6873 6.49081 48.5099 6.97089 48.5099 7.59397V12.0986L46.1629 12.0986Z" fill="#004E71"/>
<path d="M51.7868 12.0986V3.73289L54.1338 3.73289V12.0986H51.7868ZM51.7868 2.98212V0.683861L54.1338 0.683861V2.98212L51.7868 2.98212Z" fill="#004E71"/>
<path d="M59.5546 12.1905C58.5219 12.1905 57.7187 11.9198 57.145 11.3784C56.5817 10.8269 56.3001 10.0608 56.3001 9.08018V5.72472L54.8606 5.72472V3.73289H54.9388C55.3769 3.73289 55.7107 3.62564 55.9402 3.41113C56.1801 3.19663 56.3001 2.87487 56.3001 2.44586V1.83299L58.647 1.83299V3.73289L60.6498 3.73289V5.72472L58.647 5.72472V8.92697C58.647 9.21297 58.6992 9.45301 58.8035 9.64709C58.9078 9.83095 59.0695 9.96885 59.2886 10.0608C59.5076 10.1527 59.7788 10.1987 60.1022 10.1987C60.1752 10.1987 60.2587 10.1936 60.3525 10.1834C60.4464 10.1731 60.5455 10.1629 60.6498 10.1527V12.0986C60.4934 12.119 60.316 12.1394 60.1178 12.1599C59.9196 12.1803 59.7319 12.1905 59.5546 12.1905Z" fill="#004E71"/>
<path d="M62.9434 15.5C62.693 15.5 62.4479 15.4796 62.208 15.4387C61.9785 15.3979 61.7751 15.3315 61.5977 15.2395V13.355C61.7438 13.3958 61.9159 13.4316 62.1141 13.4622C62.3123 13.4928 62.4948 13.5082 62.6617 13.5082C63.1207 13.5082 63.4493 13.4009 63.6475 13.1864C63.8456 12.9719 64.0073 12.7268 64.1325 12.451L64.7114 11.1486L64.6801 13.0638L60.9249 3.73289L63.444 3.73289L65.9319 10.3672H64.9931L67.4809 3.73289H70L66.3387 12.88C66.1092 13.4622 65.8276 13.9474 65.4938 14.3355C65.16 14.7237 64.7792 15.0148 64.3516 15.2089C63.9343 15.403 63.4649 15.5 62.9434 15.5Z" fill="#004E71"/>
<path fill-rule="evenodd" clip-rule="evenodd" d="M17.2283 64.0522C26.9221 73.746 42.6388 73.746 52.3326 64.0522L57.5609 69.2805C44.9796 81.8619 24.5813 81.8619 12 69.2805L17.2283 64.0522Z" fill="#004E71"/>
</svg>
