<svg xmlns="http://www.w3.org/2000/svg" width="229" height="78" viewBox="0 0 229 78" fill="none"><path d="M0.117226 32.0084C-0.255377 30.9686 0.285515 29.8236 1.32534 29.451C2.36517 29.0784 3.51017 29.6192 3.88277 30.6591L0.117226 32.0084ZM6.75487 37.9238L5.31262 39.3094H5.31262L6.75487 37.9238ZM38.08 61.2279L37.1576 63.0025L37.1576 63.0025L38.08 61.2279ZM121.638 71.8288L121.032 69.9228L121.638 71.8288ZM158.216 39.6981L156.241 39.3827V39.3826L158.216 39.6981ZM147.442 17.1246L146.139 18.6414L146.139 18.6414L147.442 17.1246ZM119.162 2.97514L119.583 1.0199L119.583 1.01991L119.162 2.97514ZM95.6016 10.6686L97.5931 10.8531V10.8531L95.6016 10.6686ZM102.191 25.3399L100.725 26.7006L100.725 26.7005L102.191 25.3399ZM134.086 42.1881L133.606 44.1297V44.1297L134.086 42.1881ZM196.824 34.7331L195.825 33.0006L195.825 33.0005L196.824 34.7331ZM222.595 9.17999C223.676 8.95609 224.735 9.65144 224.958 10.7331L228.607 28.3594C228.831 29.4411 228.136 30.4994 227.054 30.7233C225.972 30.9472 224.914 30.2519 224.69 29.1702L221.447 13.5023L205.779 16.7455C204.697 16.9694 203.639 16.2741 203.415 15.1924C203.191 14.1108 203.887 13.0524 204.968 12.8285L222.595 9.17999ZM3.88277 30.6591C4.63605 32.7612 6.13174 34.3883 8.19713 36.5382L5.31262 39.3094C3.33714 37.2531 1.20397 35.0412 0.117226 32.0084L3.88277 30.6591ZM8.19713 36.5382C16.8395 45.5339 27.2584 53.3488 39.0025 59.4534L37.1576 63.0025C25.0357 56.7015 14.2637 48.6264 5.31262 39.3094L8.19713 36.5382ZM39.0025 59.4534C63.7619 72.3232 93.2535 78.7491 121.032 69.9228L122.243 73.7349C93.1242 82.9873 62.5041 76.1775 37.1576 63.0025L39.0025 59.4534ZM121.032 69.9228C128.98 67.3973 137.275 63.3384 143.847 58.0713C150.437 52.7903 155.112 46.4499 156.241 39.3827L160.191 40.0136C158.847 48.4297 153.364 55.5709 146.349 61.1927C139.316 66.8282 130.558 71.0931 122.243 73.7349L121.032 69.9228ZM156.241 39.3826C157.481 31.6229 153.105 24.6283 146.139 18.6414L148.746 15.6077C156.092 21.9207 161.761 30.1881 160.191 40.0137L156.241 39.3826ZM146.139 18.6414C138.703 12.2517 129.082 7.15574 118.742 4.93037L119.583 1.01991C130.624 3.39606 140.843 8.81642 148.746 15.6077L146.139 18.6414ZM118.742 4.93037C114.755 4.07237 109.385 3.59605 105.003 4.44816C102.82 4.87286 101.031 5.59923 99.7724 6.63319C98.5686 7.62229 97.7692 8.9526 97.5931 10.8531L93.6102 10.4841C93.8874 7.4916 95.2263 5.19136 97.2332 3.54251C99.1855 1.93853 101.68 1.01955 104.24 0.521729C109.345 -0.471222 115.302 0.0986786 119.583 1.0199L118.742 4.93037ZM97.5931 10.8531C97.1732 15.3847 99.9021 19.9346 103.657 23.9792L100.725 26.7005C96.8066 22.4793 93.0242 16.8083 93.6102 10.484L97.5931 10.8531ZM103.656 23.9792C111.276 32.1878 122.451 37.253 134.566 40.2465L133.606 44.1297C121.113 41.0426 109.089 35.7108 100.725 26.7006L103.656 23.9792ZM134.566 40.2465C155.537 45.4286 177.827 43.382 195.825 33.0006L197.824 36.4655C178.788 47.4454 155.408 49.5171 133.606 44.1297L134.566 40.2465ZM195.825 33.0005C199.177 31.0675 204.374 27.1434 209.379 22.7283C214.401 18.2982 219.017 13.5588 221.328 10.0403L224.672 12.2367C222.053 16.2222 217.1 21.2511 212.025 25.7279C206.934 30.2196 201.508 34.3407 197.824 36.4656L195.825 33.0005Z" fill="#004E71"></path></svg>