<svg xmlns="http://www.w3.org/2000/svg" width="200" height="167" viewBox="0 0 200 167" fill="none"><path d="M10.5374 73.2836C9.81756 72.8736 8.90163 73.1248 8.49163 73.8446C8.08162 74.5645 8.33281 75.4804 9.05266 75.8904L10.5374 73.2836ZM103.198 46.9329L101.981 46.0554L101.981 46.0559L103.198 46.9329ZM193.62 89.2883C194.021 90.0133 194.933 90.276 195.658 89.8751C196.383 89.4743 196.646 88.5616 196.245 87.8366L193.62 89.2883ZM37.6243 70.4839C38.4084 70.2164 38.8271 69.3639 38.5596 68.5799C38.2921 67.7959 37.4396 67.3771 36.6556 67.6446L37.6243 70.4839ZM7.53215 74.0275L8.92432 73.4691L8.92257 73.4648L7.53215 74.0275ZM20.0608 98.4271C20.4876 99.1371 21.4092 99.3666 22.1192 98.9398C22.8292 98.5129 23.0587 97.5914 22.6319 96.8814L20.0608 98.4271ZM9.79504 74.587C9.05266 75.8904 9.05321 75.8907 9.05418 75.8913C9.05507 75.8918 9.05646 75.8926 9.05824 75.8936C9.06178 75.8956 9.06701 75.8986 9.0739 75.9025C9.0877 75.9103 9.10817 75.922 9.13524 75.9373C9.18937 75.9681 9.26985 76.0137 9.37591 76.0736C9.58804 76.1936 9.90253 76.3709 10.3133 76.6013C11.1347 77.0621 12.3413 77.7351 13.884 78.5854C16.9695 80.2861 21.4005 82.6964 26.7865 85.5372C37.5564 91.2178 52.1552 98.6254 67.4561 105.524C82.7451 112.418 98.7884 118.828 112.434 122.489C119.253 124.319 125.535 125.479 130.857 125.649C136.137 125.818 140.713 125.023 143.894 122.683L142.116 120.266C139.745 122.01 135.994 122.812 130.953 122.651C125.955 122.491 119.921 121.392 113.211 119.591C99.7982 115.993 83.9269 109.66 68.6892 102.789C53.4635 95.9244 38.9234 88.5471 28.1861 82.8837C22.8186 80.0526 18.404 77.6512 15.3322 75.9581C13.7963 75.1116 12.5963 74.4422 11.7809 73.9848C11.3732 73.7561 11.0617 73.5804 10.8524 73.4621C10.7477 73.403 10.6687 73.3581 10.6159 73.3282C10.5895 73.3132 10.5697 73.302 10.5566 73.2945C10.5501 73.2908 10.5452 73.288 10.542 73.2862C10.5404 73.2853 10.5392 73.2846 10.5384 73.2842C10.5377 73.2838 10.5374 73.2836 9.79504 74.587ZM143.894 122.683C146.981 120.411 148.486 117.646 148.518 114.501C148.548 111.469 147.204 108.329 145.174 105.217C141.121 99.0012 133.801 92.1245 126.496 85.2552C119.101 78.3012 111.678 71.3186 107.064 64.7269C102.414 58.0842 101.044 52.4868 104.415 47.8098L101.981 46.0559C97.4044 52.4064 99.8124 59.5983 104.606 66.4472C109.436 73.3471 117.122 80.5583 124.441 87.4407C131.85 94.4079 138.85 101.01 142.661 106.856C144.565 109.775 145.54 112.312 145.518 114.471C145.498 116.515 144.58 118.453 142.116 120.266L143.894 122.683ZM104.414 47.8103C107.81 43.1014 114.339 42.1937 123.196 44.3435C131.943 46.4664 142.301 51.4383 152.422 57.4378C162.521 63.4247 172.287 70.3775 179.828 76.3827C183.599 79.3853 186.801 82.1403 189.202 84.4091C191.66 86.7312 193.135 88.411 193.62 89.2883L196.245 87.8366C195.502 86.493 193.685 84.5172 191.263 82.2283C188.783 79.8862 185.514 77.0751 181.697 74.0358C174.063 67.9572 164.184 60.9234 153.951 54.8572C143.74 48.8034 133.08 43.6554 123.903 41.4281C114.837 39.2276 106.536 39.7392 101.981 46.0554L104.414 47.8103ZM36.6556 67.6446C36.6993 67.6297 36.6248 67.6536 36.3014 67.7058C36.0263 67.7503 35.6538 67.803 35.1907 67.8636C34.2664 67.9846 33.025 68.1316 31.5687 68.3006C28.6641 68.6376 24.9258 69.0595 21.2625 69.5257C17.6065 69.9911 13.9845 70.5055 11.3146 71.0312C9.99276 71.2915 8.83435 71.5676 8.00841 71.8627C7.61572 72.003 7.17266 72.1901 6.81943 72.454C6.64345 72.5854 6.38311 72.8134 6.20497 73.1651C5.9972 73.5752 5.93892 74.0893 6.14172 74.5903L8.92257 73.4648C9.07595 73.8437 9.0261 74.2347 8.88115 74.5208C8.76582 74.7484 8.62269 74.8516 8.61482 74.8574C8.59782 74.8701 8.69464 74.8032 9.01769 74.6878C9.62324 74.4715 10.5998 74.2296 11.8942 73.9747C14.4569 73.4701 17.9925 72.9661 21.6413 72.5017C25.2831 72.0382 28.9971 71.619 31.9144 71.2806C33.369 71.1118 34.631 70.9625 35.5802 70.8382C36.0539 70.7762 36.4608 70.719 36.7797 70.6675C37.0504 70.6238 37.3848 70.5657 37.6243 70.4839L36.6556 67.6446ZM6.13999 74.586C6.28003 74.9351 6.62248 75.5781 7.03773 76.3286C7.47541 77.1196 8.05386 78.1354 8.72148 79.2916C10.0575 81.6053 11.7632 84.5035 13.442 87.3365C15.1213 90.1704 16.776 92.9429 18.0106 95.0067C18.6279 96.0387 19.1404 96.8936 19.4985 97.4906C19.6776 97.7891 19.8181 98.0232 19.9139 98.1826C19.9618 98.2623 19.9985 98.3234 20.0232 98.3646C20.0356 98.3852 20.045 98.4008 20.0512 98.4112C20.0544 98.4165 20.0568 98.4204 20.0584 98.4231C20.0592 98.4244 20.0598 98.4254 20.0602 98.4261C20.0604 98.4264 20.0605 98.4267 20.0606 98.4268C20.0607 98.427 20.0608 98.4271 21.3463 97.6542C22.6319 96.8814 22.6319 96.8813 22.6318 96.8811C22.6317 96.881 22.6315 96.8807 22.6313 96.8804C22.6309 96.8798 22.6304 96.8788 22.6296 96.8775C22.628 96.8749 22.6257 96.871 22.6225 96.8658C22.6163 96.8554 22.607 96.8399 22.5947 96.8194C22.57 96.7784 22.5335 96.7175 22.4857 96.638C22.3902 96.479 22.2499 96.2453 22.0711 95.9473C21.7135 95.3512 21.2017 94.4973 20.5851 93.4666C19.3517 91.4049 17.6994 88.6362 16.0229 85.8071C14.3459 82.9771 12.647 80.0904 11.3195 77.7914C10.6554 76.6413 10.0874 75.6437 9.66271 74.8762C9.21559 74.0681 8.97975 73.6073 8.92431 73.4691L6.13999 74.586Z" fill="#004E71"></path></svg>