<svg xmlns="http://www.w3.org/2000/svg" width="95" height="91" viewBox="0 0 95 91" fill="none"><path d="M0.935172 21.0565C0.351696 20.4684 0.355436 19.5186 0.943524 18.9352C1.53161 18.3517 2.48135 18.3554 3.06483 18.9435L0.935172 21.0565ZM53.9151 55.1382L53.3344 56.5212L53.3343 56.5211L53.9151 55.1382ZM92.3052 65.0759C93.1248 65.1969 93.6911 65.9593 93.5701 66.7788C93.4492 67.5984 92.6868 68.1647 91.8672 68.0438L92.3052 65.0759ZM84.9505 56.1281C84.5195 55.4207 84.7435 54.4977 85.4509 54.0667C86.1584 53.6356 87.0813 53.8597 87.5124 54.5671L84.9505 56.1281ZM93.2299 66.8332L94.5109 66.0527C94.9405 66.7579 94.7194 67.6777 94.0162 68.1106L93.2299 66.8332ZM81.656 75.7195C80.9505 76.1537 80.0266 75.9339 79.5923 75.2284C79.158 74.523 79.3778 73.599 80.0833 73.1647L81.656 75.7195ZM3.06483 18.9435C17.7792 33.7742 35.224 45.6614 54.4959 53.7552L53.3343 56.5211C33.6913 48.2716 15.9196 36.1593 0.935172 21.0565L3.06483 18.9435ZM54.4958 53.7551C66.2309 58.6828 79.5828 63.1983 92.3052 65.0759L91.8672 68.0438C78.7964 66.1147 65.1849 61.4973 53.3344 56.5212L54.4958 53.7551ZM87.5124 54.5671L94.5109 66.0527L91.949 67.6137L84.9505 56.1281L87.5124 54.5671ZM94.0162 68.1106L81.656 75.7195L80.0833 73.1647L92.4436 65.5558L94.0162 68.1106Z" fill="#004E71"></path></svg>