<svg xmlns="http://www.w3.org/2000/svg" width="180" height="104" viewBox="0 0 180 104" fill="none"><path d="M179.286 42.3918C179.628 41.8759 179.543 41.188 179.714 40.6721C179.714 40.5002 179.885 40.4142 179.885 40.3282C179.714 39.8123 179.97 39.3824 179.799 38.9525C179.628 38.5226 179.714 38.0067 179.714 37.5768C179.714 36.7169 179.885 35.8571 179.457 35.0833C179.372 34.9113 179.372 34.6534 179.372 34.3954C179.372 33.5356 179.372 32.6758 178.944 31.8159C178.944 31.73 178.944 31.644 178.858 31.558C178.773 30.3542 178.345 29.2365 177.832 28.1187C177.575 27.6028 177.404 27.0009 177.404 26.399C177.404 26.2271 177.404 26.0551 177.319 25.9691C176.72 25.3672 176.634 24.5074 176.121 23.8196C175.522 23.0457 175.18 22.0999 174.752 21.2401C174.239 20.2083 173.469 19.2625 172.956 18.2307L172.87 18.1447C172.528 18.0587 172.528 17.6288 172.357 17.4568C172.1 17.1989 171.844 17.0269 171.758 16.683C171.673 16.2531 170.988 16.0811 170.988 15.5652C170.988 15.4792 170.817 15.3933 170.646 15.3933C170.389 15.3073 170.304 15.1353 170.218 14.8774C170.218 14.5334 169.876 14.3615 169.62 14.1035C169.534 13.9316 169.277 14.1895 169.106 13.8456C169.021 13.6736 168.764 13.5016 168.679 13.3297C168.08 12.1259 167.652 11.954 166.198 11.0081C165.77 10.4063 165.171 10.1483 164.572 9.54644C164.401 9.37447 164.145 9.11652 163.974 9.03054C163.033 8.60063 162.434 7.65482 161.407 7.65482C161.322 7.65482 161.322 7.65482 161.236 7.56884C160.98 7.05294 160.381 6.96696 159.868 6.70901C159.354 6.45107 158.841 6.10714 158.157 5.93517C157.472 5.7632 156.959 5.24731 156.36 4.98936C155.248 4.47347 154.136 4.04355 152.938 3.87159C152.34 3.7856 151.826 3.61364 151.313 3.44167C149.944 3.01176 148.405 2.75381 147.036 2.49587L143.871 1.97997C142.844 1.808 141.732 1.63604 140.706 1.63604C139.422 1.63604 138.225 1.29211 136.942 1.29211C136.856 1.29211 136.77 1.20613 136.685 1.20613C136.343 1.20613 135.915 0.948178 135.573 1.37809C135.573 1.46407 135.487 1.46407 135.487 1.46407C135.06 0.862197 134.375 1.20613 133.776 1.12014C132.835 0.948178 131.809 1.12014 130.782 0.862197C130.611 0.862197 130.355 0.862197 130.269 1.03416C130.012 1.12014 129.927 1.20613 129.67 1.12014C129.243 0.948178 128.9 0.690229 128.473 0.948178C127.703 0.690229 126.933 1.12014 126.163 0.862197C125.564 0.690229 124.88 0.862197 124.195 0.862197C123.768 0.948178 123.34 0.77621 122.998 0.862197C122.142 1.12014 121.372 1.03416 120.175 1.03416C119.747 1.03416 118.977 1.03416 118.293 1.20613C117.523 1.37809 116.839 1.29211 116.069 1.37809C116.069 1.37809 115.983 1.37809 115.983 1.46407C115.898 1.55005 115.898 1.63604 115.898 1.72202L115.983 1.808C116.069 1.808 116.154 1.72202 116.24 1.72202C116.582 1.72202 116.496 1.63604 116.496 1.89399C116.496 1.97997 116.496 1.97997 116.411 2.06595C116.411 2.49587 116.496 2.75381 116.924 2.58185C117.095 2.58185 117.181 2.49587 117.352 2.40988C117.951 2.15193 118.549 2.06595 119.148 2.3239C119.49 2.49587 119.833 2.40988 120.175 2.40988C120.688 2.23792 121.287 2.40988 121.886 2.23792C122.313 2.49587 122.656 2.40988 123.083 2.23792C123.34 2.15193 123.597 2.15193 123.853 2.23792C124.281 2.40988 124.709 2.15193 125.136 2.23792C125.564 2.3239 125.992 2.3239 126.505 2.40988C126.933 2.49587 127.361 2.23792 127.874 2.23792C128.302 2.23792 128.815 2.58185 129.328 2.40988C129.585 2.3239 129.841 2.40988 130.012 2.3239C130.269 2.23792 130.526 2.3239 130.697 2.3239C131.21 2.15193 131.638 2.40988 132.151 2.40988C132.579 2.40988 132.921 2.3239 133.349 2.23792C133.776 2.15193 134.033 2.66783 134.461 2.66783C134.632 2.66783 134.803 2.75381 135.06 2.75381C135.316 2.75381 135.573 2.75381 135.829 2.66783C136.172 2.66783 136.428 2.75381 136.685 2.66783C137.027 2.58185 137.113 3.01176 137.369 2.8398C137.883 2.49587 138.481 2.92578 138.995 2.75381C139.251 2.66783 139.936 2.92578 140.278 3.09774C140.791 3.35569 141.39 3.35569 141.989 3.35569H142.93C143.785 3.52765 144.641 3.7856 145.496 3.7856C145.753 3.7856 145.924 3.87159 146.095 3.87159C146.523 4.04355 146.95 4.3015 147.464 4.12953C148.062 3.95757 148.148 4.64543 148.747 4.64543H148.832C149.773 4.64543 150.629 4.98936 151.57 5.24731C152.425 5.50525 153.366 5.67722 154.222 6.10714C155.676 6.88098 157.387 7.39687 158.927 8.08474L159.525 8.34268C160.124 8.60063 160.809 8.68661 161.322 9.11652C161.835 9.54644 162.434 9.89037 162.947 10.1483C163.118 10.2343 163.289 10.4922 163.46 10.6642C163.974 11.1801 164.487 11.782 165.257 12.1259C165.428 12.2119 165.685 12.4699 165.856 12.6418C166.198 12.9857 166.454 13.3297 166.882 13.5876C167.224 13.7596 167.652 14.0175 167.909 14.3615C168.165 14.7054 168.679 14.9633 168.679 15.4792C168.679 15.5652 168.85 15.8232 168.935 15.7372C169.277 15.7372 169.277 15.9092 169.449 16.0811C169.876 16.511 170.047 17.1129 170.561 17.4568C171.159 17.8868 171.33 18.5746 171.673 19.0045C172.271 19.6924 172.614 20.4662 173.127 21.0681C173.212 21.67 173.64 22.0999 173.982 22.6158C174.581 23.5616 175.18 24.6794 175.522 25.7972C175.693 26.1411 175.779 26.571 175.95 26.8289C176.292 27.2589 176.463 27.7748 176.634 28.2047C176.976 29.0645 177.062 30.0103 177.404 30.8701C177.746 31.73 177.661 32.7617 178.174 33.5356V33.7076C178.003 34.3094 178.345 34.8253 178.345 35.4272C178.345 36.0291 178.431 36.631 178.687 37.1469C178.858 37.3188 178.858 37.4908 178.773 37.7487C178.345 38.3506 178.345 39.0385 178.345 39.7263C178.345 40.3282 178.431 40.9301 178.26 41.532C178.089 42.0479 177.917 42.5638 178.174 43.1656C178.174 43.2516 178.089 43.4236 178.003 43.5096C177.917 43.5956 177.832 43.7675 177.917 43.8535C178.174 44.4554 177.832 44.8853 177.575 45.3152C177.49 45.4872 177.319 45.6591 177.319 45.8311C177.319 46.6909 176.805 47.3788 176.891 48.2386C176.549 48.6685 176.463 49.1844 176.121 49.6143C175.693 50.1302 176.035 50.7321 175.522 51.162C175.18 51.42 175.351 51.9359 175.18 52.3658C175.009 52.7957 174.41 52.9677 174.41 53.4836V53.9135C174.239 54.2574 174.153 54.6873 173.726 54.8593C173.555 54.9453 173.469 55.1172 173.384 55.2892C173.298 55.5471 173.127 55.8051 173.127 56.063C173.127 56.4929 172.785 56.6649 172.528 56.9229C172.015 57.4388 171.416 57.8687 171.245 58.6425C171.159 58.9864 170.817 59.3304 170.732 59.6743C170.646 60.1042 170.218 60.4481 169.876 60.7921C169.277 61.394 168.679 61.9958 168.08 62.6837C167.481 63.3716 166.882 63.8015 166.454 64.5753C166.283 64.9192 165.685 65.0052 165.513 65.3492C165.086 66.209 164.059 66.6389 163.631 67.4987C163.546 67.5847 163.46 67.6707 163.375 67.6707C162.519 68.1006 161.835 68.8744 161.151 69.4763L157.643 72.3138C157.472 72.4857 157.301 72.5717 157.045 72.6577L155.932 73.4315C155.163 73.9474 154.478 74.5493 153.708 75.0652C152.682 75.7531 151.741 76.4409 150.714 77.0428L148.319 78.4185C147.635 78.8484 146.865 79.1064 146.266 79.5363C145.582 79.9662 144.726 80.0522 144.213 80.74C143.443 80.74 143.015 81.4279 142.331 81.5139C142.16 81.5999 141.903 81.6859 141.903 81.8578C141.903 82.2017 141.818 82.2877 141.561 82.2877C141.219 82.2877 140.962 82.2877 140.62 82.4597C140.278 82.6317 139.85 82.7176 139.593 83.0616C139.166 83.1476 138.738 83.3195 138.396 83.4915C137.968 83.6635 137.626 83.9214 137.198 84.0934C136.942 84.1793 136.856 84.3513 136.942 84.6093C136.942 84.8672 136.77 85.0392 136.514 84.9532C135.829 84.6952 135.316 84.6952 134.717 85.0392L133.007 85.985C132.835 86.071 132.664 86.2429 132.408 86.2429C131.894 86.2429 131.638 86.5869 131.21 86.7588C130.868 86.9308 130.44 86.8448 130.012 87.1028C129.756 87.1887 129.414 87.3607 129.157 87.3607C128.815 87.3607 128.644 87.7906 128.302 87.8766C127.532 88.0486 126.762 88.5645 125.992 88.7364C125.564 88.8224 125.222 88.9944 124.794 89.1663C124.538 89.2523 124.281 89.6822 123.939 89.7682L122.741 90.0262C122.057 90.1981 121.372 90.4561 120.774 90.628C119.918 90.886 119.148 91.4019 118.293 91.4879C117.694 91.5739 117.095 91.8318 116.496 92.0038C116.24 92.0897 116.069 92.2617 115.812 92.3477C114.443 92.7776 113.075 93.2075 111.62 93.4655C110.765 93.6374 109.824 93.8954 109.054 94.3253C108.113 94.8412 107.087 94.6692 106.231 94.9272C105.974 95.0132 105.718 95.1851 105.376 95.1851C105.119 95.2711 104.777 95.4431 104.435 95.4431C103.921 95.4431 103.408 95.701 102.895 95.873C102.638 95.959 102.296 95.959 102.039 96.045C100.927 96.3889 99.7297 96.3889 98.7032 96.9048C98.5321 96.9908 98.4465 97.0767 98.1899 96.9908C98.0188 96.9908 97.8477 96.9048 97.6766 96.9908C96.9923 97.0767 96.3079 97.2487 95.6236 97.4207C94.7681 97.6786 93.9127 97.7646 93.0572 98.0226C92.715 98.1945 92.3729 98.0225 92.0307 98.2805C91.603 98.6244 91.2608 98.1945 90.8331 98.3665C90.1487 98.6244 89.4643 98.6244 88.78 98.7104L87.2402 98.9684C86.6414 99.0543 86.1281 99.3983 85.4437 99.2263C85.1016 99.1403 84.6738 99.3123 84.3316 99.3983C83.134 99.4842 81.9364 99.7422 80.7388 99.9142C79.9689 100 79.199 100.172 78.4291 100.172C77.8303 100.172 77.2315 100.258 76.6326 100.258C76.2049 100.258 75.7772 100.602 75.3495 100.43C74.8362 100.258 74.4085 100.516 73.9808 100.516C73.4675 100.516 73.0398 100.516 72.5265 100.602C72.1843 100.688 71.8421 100.516 71.5855 100.602C70.6445 100.946 69.618 100.774 68.677 100.86C67.9071 100.946 67.2227 100.774 66.4528 101.032C66.1962 101.118 65.854 101.118 65.5974 101.032C64.9986 100.86 64.4853 101.032 63.8865 101.032C63.6299 101.032 63.2877 101.032 63.0311 101.118H59.8659C58.7538 101.118 57.7273 100.946 56.7008 101.204H56.3586C55.5031 101.032 54.5621 101.032 53.6212 101.204C53.5356 101.29 53.3645 101.204 53.279 101.118C53.1934 101.118 53.0223 100.946 52.9368 100.946C51.7392 100.946 50.5416 100.774 49.3439 100.774C48.4885 100.774 47.633 101.032 46.8631 100.602C46.692 100.516 46.521 100.516 46.3499 100.516C45.6655 100.774 44.9812 100.516 44.2968 100.43C43.7835 100.344 43.2703 100.258 42.757 100.258C42.2437 100.258 41.6449 100.086 41.1316 100.086C40.5328 100.086 39.934 100 39.3352 100C38.5653 100 37.7954 99.9142 37.0255 99.6562C36.2556 99.8282 35.4857 99.3983 34.7158 99.3123C34.5447 99.2263 34.2881 99.1403 34.0315 99.2263C33.5182 99.3983 33.0049 98.8824 32.4061 98.9684C31.8928 99.0543 31.3796 98.7964 30.7808 98.7104C30.1819 98.6244 29.5831 98.4525 28.8988 98.3665C27.9578 98.2805 27.1023 98.1085 26.2469 97.6786C26.0758 97.5926 25.9903 97.5926 25.8192 97.5926C24.3649 97.5926 22.9962 96.5608 21.5419 96.5608C21.4564 96.5608 21.2853 96.4749 21.1998 96.3889C20.9431 96.1309 20.601 96.1309 20.3443 96.045C19.7455 95.873 19.1467 95.873 18.8045 95.3571C18.8045 95.2711 18.6334 95.2711 18.5479 95.1851C17.1792 94.8412 15.896 93.9814 14.6128 93.5515C14.0996 93.3795 13.5863 93.0356 13.073 92.5197C12.9019 92.3477 12.7309 92.1757 12.4742 92.0898C11.8754 91.7458 11.2766 91.3159 10.7633 90.886C10.1645 90.3701 9.56571 90.1121 9.22353 89.5103C8.53917 89.1663 8.11145 88.4785 7.68373 87.9626C6.82828 87.0168 5.88729 86.2429 5.37402 85.0392C5.03184 84.6093 4.77521 84.1793 4.60412 83.6635C4.51858 83.3195 4.1764 83.0616 3.83422 82.8896C3.66313 82.8036 3.66313 82.7176 3.57759 82.4597C3.23541 81.4279 3.23541 80.3961 2.80769 79.4503C2.46551 78.6765 2.20887 77.9886 2.46551 77.1288C2.55105 77.1288 2.46551 76.9568 2.37996 76.8708C2.20887 76.6989 2.29442 76.4409 2.29442 76.097C2.29442 75.6671 2.20887 75.2372 2.29442 74.8072C2.37996 74.4633 2.29442 74.2054 2.12333 74.0334C1.95224 73.8614 1.95224 73.6895 2.12333 73.5175C2.29442 73.3455 2.37996 73.0016 2.29442 72.7437C2.20887 72.4857 2.20887 72.2278 2.37996 71.9698C2.46551 71.7978 2.46551 71.5399 2.46551 71.282C2.46551 70.852 2.6366 70.4221 2.6366 69.9922C2.6366 69.5623 2.80769 69.2184 3.06432 68.9604C3.32095 68.7025 3.49204 68.4445 3.23541 68.1006V67.8427C3.4065 67.3268 3.49204 66.7249 3.74868 66.295C4.00531 65.8651 4.1764 65.4351 4.34749 65.0052C4.86076 63.8015 5.28848 62.5117 5.97284 61.308L6.99937 59.5023L7.94036 57.6967C8.19699 57.1808 8.53917 56.7509 8.88135 56.321C10.3356 54.5154 11.5332 52.5378 12.9019 50.6461L13.5008 50.0442C13.9285 49.6143 14.3562 49.1844 14.6128 48.4966C14.6984 48.4106 14.7839 48.2386 14.8695 48.2386C15.5538 47.7227 16.0671 47.2068 16.4948 46.519C16.6659 46.261 17.0081 46.0891 17.1792 45.8311C17.3503 45.5732 17.4358 45.3152 17.6924 45.0573C18.1202 44.7993 18.3768 44.2834 18.8045 43.9395C19.3178 43.5096 19.7455 43.0797 20.1732 42.6497C20.772 42.0479 21.2853 41.36 22.0552 40.8441L22.3974 40.5862C22.7396 40.1562 23.0817 39.7263 23.5095 39.3824C23.8516 38.8665 24.3649 38.6086 24.7926 38.3506C25.2204 38.0927 25.3915 37.4048 25.9903 37.3188C26.6746 36.459 27.6156 36.1151 28.3855 35.3412C28.8132 34.9113 29.412 34.4814 29.9253 34.1375C30.4386 33.7935 30.9518 33.1917 31.5507 32.8477C32.6627 32.2459 33.6037 31.2141 34.8869 30.6122C34.9724 30.6122 34.9724 30.5262 35.058 30.4402C35.6568 29.8383 36.4267 29.4944 37.1111 28.9785C37.4532 28.7206 37.881 28.4626 38.3087 28.2907C38.7364 28.1187 39.0786 27.8607 39.4208 27.4308C39.7629 27.0009 40.3617 27.1729 40.7039 26.8289C41.4738 26.0551 42.5004 25.7112 43.4414 25.1953C44.5534 24.5934 45.58 23.9915 46.692 23.3037C47.1198 23.0457 47.5475 22.7878 48.0608 22.7018C48.6596 22.6158 49.0873 22.2719 49.6006 22.0139C50.0283 21.584 50.6271 21.412 51.2259 21.2401C51.7392 21.0681 52.1669 20.4662 52.7657 20.4662C52.9368 20.4662 53.1079 20.1223 53.279 19.9503C53.4501 19.7784 53.6212 19.6924 53.7922 19.6064C54.9899 19.5204 56.1019 19.0905 57.1285 18.5746C57.8128 18.2307 58.7538 18.1447 59.3526 17.5428C59.5237 17.3709 59.8659 17.4568 60.037 17.1989C60.2936 17.0269 60.6358 17.0269 60.978 16.9409C61.2346 16.855 61.4057 16.683 61.6623 16.511C61.8334 16.511 61.919 16.425 62.0901 16.425C62.4322 16.425 62.6889 16.3391 63.0311 16.1671C63.7154 15.8232 64.4853 15.6512 65.2552 15.3933C65.854 15.2213 66.4528 14.9633 66.8806 14.4474C66.9661 14.2755 67.1372 14.1895 67.3938 14.2755C67.6505 14.3615 67.9071 14.4474 68.2493 14.2755C68.9336 13.9315 69.7035 13.7596 70.4734 13.4157C71.0723 13.1577 71.6711 12.9857 71.9277 12.3839C72.0132 12.2979 72.0132 12.2979 72.0988 12.2979C72.1843 12.2119 72.5265 12.2979 72.5265 12.4698C72.441 12.7278 72.6121 12.7278 72.7831 12.7278C73.0398 12.6418 73.2109 12.2119 73.4675 12.2979C73.9808 12.4698 74.4085 12.2119 74.8362 12.2119C75.3495 12.2119 75.8627 12.1259 76.2905 11.782C76.7182 11.4381 77.2315 11.3521 77.7447 11.3521C78.0869 11.3521 78.5146 11.4381 78.7713 11.1801C79.199 10.9222 79.5412 10.8362 79.9689 10.7502C80.9099 10.5782 81.8509 10.2343 82.7918 10.2343C82.9629 10.1483 83.0485 10.0623 83.2196 10.0623C84.5027 9.54644 85.8715 9.54644 87.2402 9.11652C87.9245 9.20251 88.5233 8.94456 89.1222 8.68661C89.8065 8.42867 90.4909 8.34268 91.1752 8.34268C91.603 8.34268 92.0307 8.34268 92.3729 8.17072C93.2283 7.91277 94.0837 7.91277 94.9392 7.7408C96.7356 7.39687 98.6176 7.05294 100.414 6.88098C100.5 6.795 100.671 6.795 100.671 6.795C101.013 6.53705 101.355 6.53705 101.697 6.53705C102.039 6.53705 102.467 6.36509 102.809 6.36509C103.494 6.36509 104.264 6.10714 104.948 6.2791C105.119 6.2791 105.29 6.19312 105.376 6.10714L105.718 5.7632C105.974 5.50525 106.231 5.84919 106.488 5.59124C106.573 5.50525 106.744 5.59124 106.83 5.67722C107.172 6.02115 107.514 6.02115 107.856 5.93517C108.455 5.7632 109.054 5.7632 109.653 5.7632H110.765C111.022 5.7632 111.193 5.59124 111.364 5.41927C111.535 5.33329 111.62 5.16132 111.535 4.98936C111.449 4.8174 111.449 4.55945 111.193 4.55945C110.85 4.55945 110.508 4.47347 110.081 4.47347C109.054 4.47347 108.028 4.73141 107.001 4.55945C106.317 4.90338 105.461 4.47347 104.862 5.07534C104.862 5.07534 104.777 4.98936 104.691 4.98936C104.606 4.64543 104.349 4.73141 104.092 4.73141C103.237 4.98936 102.296 4.98936 101.355 5.16132C100.243 5.33329 99.0453 5.16132 98.0188 5.67722H97.8477C96.8212 5.67722 95.7946 5.84919 94.8536 6.02115C93.656 6.2791 92.4584 6.45107 91.2608 6.62303C89.9776 6.795 88.6089 7.05294 87.3257 7.39687C86.9835 7.48285 86.5558 7.56884 86.1281 7.56884C85.5293 7.56884 84.9305 7.82679 84.3316 7.82679C84.075 7.91277 83.8184 8.2567 83.6473 8.17072C83.3051 8.17072 83.0485 8.2567 82.7063 8.2567C82.022 8.2567 81.3376 8.51465 80.6532 8.7726C80.4822 8.7726 80.2255 8.85858 79.9689 8.94456L78.5146 9.20251C78.0014 9.37447 77.4881 9.37447 77.1459 9.7184C76.9748 9.80439 76.7182 9.80439 76.5471 9.80439C75.9483 9.80439 75.435 10.0623 74.9218 10.2343C74.5796 10.3203 74.2374 10.5782 73.9808 10.5782C72.9542 10.5782 72.1843 11.0081 71.2433 11.2661C71.0723 11.2661 70.9012 11.4381 70.7301 11.4381C70.0457 11.4381 69.4469 11.696 68.7625 11.954C68.0782 12.2119 67.4794 12.7278 66.7095 12.7278C66.7095 12.7278 66.6239 12.8998 66.6239 12.9857C66.4528 13.3297 66.3673 13.4157 66.1107 13.3297C65.9396 13.1577 65.854 12.8998 65.5118 13.1577C64.8275 13.6736 64.0576 13.9316 63.2021 14.0175C62.4322 14.1035 61.7479 14.3615 61.0635 14.6194C59.7804 15.1353 58.4117 15.4792 57.2996 16.3391C57.1285 16.4251 57.0429 16.425 56.8718 16.425C56.5297 16.425 56.1875 16.597 55.8453 16.769C55.5031 16.9409 55.2465 16.9409 54.9043 17.1129C54.5621 17.2849 54.22 17.3709 53.8778 17.5428C53.6212 17.7148 53.1934 17.7148 53.0223 17.9727C52.7657 18.3167 52.338 18.0587 52.0814 18.3167C51.8247 18.5746 51.4825 18.6606 51.1404 18.8326C50.6271 19.0905 50.0283 19.0905 49.6006 19.5204C49.1728 19.9503 48.574 20.0363 47.9752 20.2943C47.8041 20.3803 47.4619 20.4662 47.2053 20.5522C46.1788 20.8961 45.2378 21.498 44.2113 22.0139C42.757 22.7878 41.4738 23.7336 39.934 24.5074C39.7629 24.5934 39.6774 24.7654 39.5063 24.8513C38.2231 25.4532 37.0255 26.1411 35.9134 26.9149L34.3736 27.9467C32.7483 28.9785 31.294 30.1823 29.5831 31.3C29.0699 31.644 28.4711 31.9879 28.0433 32.4178C26.7602 33.7076 25.2204 34.4814 23.9372 35.7711C23.3384 36.373 22.7396 36.9749 22.0552 37.4048C21.1998 37.9207 20.6865 38.7805 19.9166 39.3824C19.4889 40.0703 18.719 40.4142 18.3768 41.1021C18.2913 41.274 18.1202 41.274 18.0346 41.36L17.4358 41.9619C17.2647 42.1339 17.0936 42.3918 16.837 42.5638C16.4948 42.7357 16.2382 43.0797 15.9815 43.4236C15.2116 44.0255 14.7839 44.9713 14.014 45.4872L13.5863 45.9171C12.9019 47.1208 11.7043 47.9807 10.9344 49.0984L8.45363 52.4518C7.94036 53.2256 7.42709 53.9995 6.99937 54.7733C6.05838 56.407 4.68967 57.8687 4.26194 59.7603L4.1764 59.8463C3.57759 60.4482 3.74868 61.308 3.06432 61.7379C3.06432 62.4257 2.55105 62.8557 2.37996 63.3716C2.20887 63.8875 2.29442 64.4893 1.8667 64.9193C1.69561 65.0912 1.61006 65.3492 1.69561 65.6071C1.78115 65.7791 1.69561 65.951 1.61006 66.123C1.52452 66.5529 1.35343 66.9828 1.09679 67.3268C1.09679 68.1866 0.669071 68.9604 0.669071 69.8203C0.669071 70.0782 0.669071 70.3362 0.497982 70.5941C0.155804 71.11 0.241349 71.5399 0.241349 72.0558C0.241349 72.2278 0.497982 72.4857 0.326894 72.6577C0.155804 73.0876 0.326894 73.4315 0.241349 73.7755C0.155804 74.1194 -0.0152847 74.4633 0.155804 74.8072C-0.186374 75.5811 0.0702594 76.3549 0.583527 76.9568C0.669071 77.1288 0.669071 77.3007 0.583527 77.4727C0.326894 77.9886 0.497982 78.3325 0.583527 78.6765C0.669071 79.1924 0.583527 79.7083 1.01125 80.1382C1.61006 80.74 1.35343 81.7718 1.95224 82.3737C2.03778 82.4597 2.03778 82.6317 2.12333 82.8036V82.8896C2.12333 83.3195 2.29442 83.6635 2.46551 83.9214C2.6366 84.2653 2.89323 84.4373 3.06432 84.7812C3.74868 86.071 4.60412 87.2747 5.45957 88.4785C5.7162 88.8224 5.97284 89.1663 6.40056 89.4243C6.82828 89.6822 7.08491 90.0262 7.34155 90.2841C7.94036 90.886 8.28254 91.6598 9.05244 92.0898C9.82234 92.5197 10.3356 93.2935 11.1055 93.7234L11.6188 93.9814C11.7899 94.2393 12.0465 94.5832 12.4742 94.4113C12.8164 94.8412 13.4152 94.7552 13.8429 95.1851C14.3562 95.701 14.8695 95.959 15.3827 96.3889C16.2382 96.5608 16.9225 97.1627 17.778 97.4207C17.8635 97.5067 18.0346 97.5926 18.1202 97.5926C18.5479 97.4207 18.8045 97.6786 19.1467 97.8506C19.66 98.1085 20.0877 98.5384 20.772 98.5384C21.0287 98.5384 21.2853 98.7104 21.5419 98.8824C22.3118 99.1403 22.9962 99.3983 23.8516 99.3983C24.1083 99.3983 24.3649 99.4842 24.6215 99.6562C25.1348 100 25.7336 100.344 26.418 100.172C26.8457 100.086 27.1879 100.172 27.4445 100.258C28.3855 100.602 29.3265 100.86 30.2675 101.032C31.5507 101.29 32.7483 101.462 33.9459 101.634C34.6303 101.72 35.2291 101.892 35.9134 101.892H37.7954C38.052 101.892 38.3087 101.978 38.6509 102.064C38.9075 102.15 39.1641 102.15 39.4208 102.236C39.934 102.408 40.5328 102.322 41.0461 102.408C41.9871 102.58 42.8425 102.752 43.7835 102.752C44.639 102.752 45.4944 102.752 46.2643 102.924C46.6065 103.01 47.1198 103.096 47.3764 102.924C47.8897 102.58 48.4029 102.838 48.8307 102.924C49.6006 103.096 50.2849 103.267 51.0548 103.01C51.1404 103.01 51.2259 103.01 51.3115 103.096C51.6536 103.267 51.9103 103.182 52.2524 103.096C52.5946 103.01 52.9368 103.096 53.279 102.924C53.4501 102.838 53.6212 102.838 53.7922 103.01C54.0489 103.267 54.3055 103.267 54.5621 103.267C55.2465 103.267 55.9309 103.353 56.6152 103.267C57.1285 103.182 57.5562 103.353 57.9839 103.353C58.155 103.353 58.2406 103.525 58.4117 103.353C58.5827 103.01 58.8394 103.096 59.096 103.267C59.2671 103.353 59.5237 103.353 59.7804 103.267C59.9515 103.096 60.2081 103.096 60.3792 103.182C60.5503 103.267 60.7214 103.353 60.8924 103.353H62.7744C63.3732 103.267 63.8865 103.267 64.4853 103.267C64.5709 103.267 64.742 103.267 64.742 103.182C65.0841 102.838 65.4263 102.924 65.7685 103.01C66.1107 103.096 66.5384 103.096 66.8806 102.838C67.1372 102.666 67.3083 102.838 67.4794 103.01C67.5649 103.182 67.736 103.267 67.9071 103.182C68.3348 103.096 68.677 103.096 69.0192 103.01H71.8421C72.1843 103.01 72.5265 103.096 72.8687 102.752C72.9542 102.666 73.1253 102.58 73.2109 102.666C73.7241 102.838 74.1519 102.58 74.5796 102.666H76.1194C76.2905 102.666 76.376 102.666 76.5471 102.58C77.8303 102.322 79.199 102.15 80.5677 102.15C80.9099 102.15 81.3376 102.064 81.7653 101.978C82.7918 101.806 83.7328 101.548 84.7594 101.548C85.5293 101.548 86.2136 101.376 86.9835 101.204C87.1546 101.204 87.3257 101.032 87.5824 100.946C88.0956 101.548 88.6089 100.946 89.0366 100.86C89.5499 100.774 89.9776 100.774 90.4053 100.688C91.5174 100.43 92.5439 100.258 93.656 100.086C94.9392 99.9142 96.0513 99.6562 97.3344 99.3123L99.4731 98.7964C99.6441 98.7104 99.7297 98.5384 99.8152 98.4525C100.072 98.8824 100.414 98.6244 100.671 98.5384L101.783 98.2805C102.809 98.1945 103.75 97.7646 104.691 97.5926C105.119 97.4207 105.376 97.1627 105.718 97.1627C106.317 97.1627 106.83 96.9908 107.343 96.8188C108.712 96.3889 110.081 96.3029 111.364 95.615C111.535 95.5291 111.706 95.4431 111.877 95.5291C112.134 95.701 112.305 95.5291 112.561 95.5291C114.016 95.0132 115.555 94.5833 117.01 94.0674C118.036 93.7234 118.977 93.4655 119.833 92.9496C120.089 92.6916 120.431 92.9496 120.688 92.8636C121.201 92.4337 121.8 92.4337 122.313 92.2617C122.827 92.0898 123.254 91.9178 123.768 91.6598C123.853 91.6598 123.853 91.4879 123.939 91.3159C124.195 90.8 124.452 90.8 124.965 91.058C125.136 91.1439 125.308 91.1439 125.564 90.972C125.735 90.886 125.821 90.8 125.906 90.628C126.077 90.1981 126.42 90.1122 126.847 90.1981C127.446 90.2841 128.045 90.1122 128.558 89.8542L130.184 89.0804C130.269 88.9944 130.44 88.9084 130.526 88.9084C131.467 88.9084 132.151 88.4785 133.007 88.0486L134.632 87.2747C135.231 87.0168 135.744 86.8448 136.257 86.3289C136.343 86.2429 136.514 86.3289 136.685 86.2429C136.856 86.157 137.113 86.1569 137.198 86.071C137.455 85.813 137.626 85.6411 137.968 85.813C138.225 85.5551 138.481 85.3831 138.824 85.3831C139.08 85.3831 139.337 85.2971 139.422 85.2111C139.765 84.8672 140.107 84.7812 140.449 84.4373C140.706 84.1794 140.962 84.0934 141.304 84.2653C141.39 84.2653 141.647 84.1793 141.818 84.0934C142.331 83.5775 143.015 83.4055 143.614 83.1476C144.298 82.8036 144.983 82.5457 145.582 82.2018C145.838 82.0298 146.095 81.8578 146.095 81.5999C146.095 81.3419 146.095 81.2559 146.351 81.2559C147.292 81.2559 147.72 81.17 148.319 80.6541C148.832 80.2241 149.517 79.8802 150.201 79.6223L151.484 78.8484C151.997 78.5045 152.425 78.1606 152.938 77.9026C154.222 77.2148 155.419 76.183 156.702 75.4091C157.301 75.0652 157.9 74.6353 158.413 74.2054C158.67 73.8614 159.183 73.6895 159.354 73.4315C159.611 73.0016 160.124 72.8296 160.466 72.5717L163.46 69.9922C163.888 69.6483 164.316 69.3044 164.572 68.9604C165.171 68.1866 165.77 67.5847 166.454 66.8969C166.626 66.7249 166.711 66.5529 166.882 66.5529C167.481 66.209 167.823 65.6931 168.251 65.1772C169.021 64.2314 169.791 63.4575 170.475 62.5117C170.646 62.2538 170.988 61.8239 171.245 61.5659C171.587 61.222 171.844 60.964 171.929 60.5341C172.015 60.1042 172.528 60.1042 172.699 59.5883C172.87 59.1584 173.298 58.9005 173.555 58.5565C173.811 58.2126 173.811 57.7827 173.897 57.4388C173.982 57.0948 174.496 57.0948 174.667 56.6649C174.752 56.407 175.009 56.149 175.18 55.8051C175.351 55.4612 175.437 55.1172 175.522 54.7733C175.522 54.3434 175.95 54.1714 176.121 53.7415C176.463 52.8817 176.805 52.1078 177.233 51.334C177.404 50.9901 177.575 50.6461 177.661 50.3022C177.832 49.7003 177.832 49.0984 178.174 48.5825C178.516 47.9807 178.345 47.2928 178.687 46.7769C178.858 46.519 178.858 46.347 178.858 46.089C178.858 45.3152 179.029 44.6273 179.286 43.9395C179.543 43.5096 179.714 42.9937 179.372 42.6497C179.286 42.5638 179.201 42.3918 179.286 42.3918ZM107.942 3.01176C107.942 2.75381 108.028 2.75381 108.113 2.8398C108.199 2.8398 108.284 3.01176 108.37 3.09774C108.626 3.18372 108.712 2.75381 108.712 2.8398C109.14 3.18372 109.482 3.09774 109.909 3.01176C110.252 3.09774 110.508 3.18372 110.85 3.09774C111.193 3.01176 111.535 2.8398 111.877 2.8398C112.305 2.8398 112.647 2.75381 113.075 2.92578C113.331 3.01176 113.502 2.92578 113.673 2.66783C113.759 2.49587 113.93 2.40988 114.101 2.58185C114.358 2.66783 114.443 2.58185 114.614 2.40988C114.871 2.15193 114.871 2.3239 115.128 2.58185C115.213 2.66783 115.384 2.66783 115.384 2.49587C115.47 2.23792 115.555 1.97997 115.47 1.72202C115.384 1.63604 115.042 1.63604 114.786 1.55005C114.358 1.29211 113.845 1.37809 113.331 1.55005C112.818 1.72202 112.305 1.72202 111.791 1.72202C111.193 1.72202 110.594 1.808 110.081 2.23792C109.909 2.3239 109.738 2.40988 109.653 2.23792C109.396 1.97997 109.054 1.89399 108.712 1.89399L106.573 2.23792L106.488 2.3239V2.58185C106.915 2.92578 107.343 3.18372 107.856 3.18372C107.942 3.18372 107.942 3.09774 107.942 3.01176ZM101.098 4.04355C101.441 4.04355 101.783 4.12953 102.125 3.95757C102.296 3.87159 102.553 3.7856 102.638 3.7856C103.494 3.7856 104.178 3.52765 104.948 3.35569C105.461 3.26971 105.718 3.01176 105.974 2.58185C105.29 2.15193 104.52 2.58185 103.836 2.58185C103.75 2.58185 103.579 2.58185 103.494 2.66783C102.98 2.92578 102.553 3.01176 102.039 2.75381C102.039 2.75381 101.954 2.8398 101.868 2.8398C101.783 2.8398 101.612 2.92578 101.697 3.09774C101.697 3.35569 101.868 3.52765 101.526 3.52765L101.013 3.7856L100.927 3.87159C100.927 3.95757 100.927 4.04355 101.098 4.04355ZM93.656 4.90338C93.7416 4.98936 93.9127 5.07534 93.9982 5.07534L95.1958 4.8174C95.3669 4.73141 95.4525 4.55945 95.2814 4.38748V4.12953H95.1958C95.6236 4.04355 95.9657 4.47347 96.3934 4.3015C96.5645 4.21552 96.5645 4.38748 96.6501 4.55945C96.9923 4.90338 96.9923 4.8174 97.3344 4.64543C97.5055 4.55945 97.6766 4.38748 97.8477 4.21552C98.1043 4.12953 98.1043 4.21552 98.1043 4.47347C98.1043 4.55945 98.2754 4.64543 98.2754 4.64543C98.8742 4.55945 99.3875 4.3015 99.9863 4.3015C100.157 4.3015 100.243 4.12953 100.243 3.87159C100.243 3.69962 100.157 3.52765 100.072 3.35569C100.072 3.18372 99.7297 3.09774 99.6441 3.18372C99.2164 3.61364 98.8742 3.61364 98.361 3.61364H96.3934C95.9657 3.61364 95.538 3.69962 95.1958 4.12953C94.7681 4.12953 94.4259 3.95757 93.9127 4.21552C93.7416 4.3015 93.5705 4.3015 93.3994 4.21552C93.2283 4.21552 93.0572 4.21552 92.8861 4.3015C92.8006 4.3015 92.8006 4.38748 92.8006 4.47347C92.715 4.47347 92.8006 4.55945 92.8006 4.55945C93.2283 4.38748 93.3994 4.64543 93.656 4.90338ZM117.865 5.07534C118.549 5.07534 119.234 5.33329 119.833 5.24731H121.03C121.116 5.24731 121.287 5.24731 121.287 5.07534C121.372 4.98936 121.116 4.73141 121.03 4.8174C120.688 4.90338 120.517 4.8174 120.346 4.55945C120.26 4.38748 120.175 4.21552 120.004 4.21552C119.234 4.21552 118.464 4.21552 117.694 4.47347C117.608 4.47347 117.523 4.8174 117.694 4.90338C117.694 4.98936 117.78 5.07534 117.865 5.07534Z" fill="#8DE969"></path></svg>