<svg width="159" height="159" viewBox="0 0 159 159" fill="none" xmlns="http://www.w3.org/2000/svg">
<path d="M0 0H159V135L0 159V0Z" fill="#FFD588"/>
<path d="M63.0059 87.421C60.6213 87.421 58.4185 86.9562 56.3977 86.0266C54.4172 85.0566 52.8409 83.6824 51.6688 81.904L52.457 80.3278V86.6935H45V30H52.942V60.2606L51.7295 58.6237C52.8612 56.8453 54.397 55.4711 56.337 54.5011C58.2771 53.4907 60.5202 52.9855 63.0665 52.9855C66.1786 52.9855 68.9876 53.7534 71.4935 55.2893C73.9994 56.8251 75.9798 58.8864 77.4348 61.4731C78.9303 64.0598 79.678 66.9699 79.678 70.2032C79.678 73.3962 78.9505 76.3062 77.4955 78.9334C76.0405 81.5605 74.06 83.642 71.5541 85.1778C69.0483 86.6733 66.1988 87.421 63.0059 87.421ZM62.0965 80.1459C63.9153 80.1459 65.532 79.7215 66.9466 78.8727C68.3612 78.024 69.4524 76.8519 70.2204 75.3564C71.0287 73.861 71.4329 72.1433 71.4329 70.2032C71.4329 68.2632 71.0287 66.5657 70.2204 65.1107C69.4524 63.6152 68.3612 62.4431 66.9466 61.5944C65.532 60.7052 63.9153 60.2606 62.0965 60.2606C60.3586 60.2606 58.7823 60.685 57.3677 61.5337C55.9935 62.3825 54.9022 63.5748 54.0939 65.1107C53.326 66.6061 52.942 68.3036 52.942 70.2032C52.942 72.1433 53.326 73.861 54.0939 75.3564C54.9022 76.8519 55.9935 78.024 57.3677 78.8727C58.7823 79.7215 60.3586 80.1459 62.0965 80.1459Z" fill="#004E71"/>
<path d="M99.7791 87.421C96.384 87.421 93.4134 86.6531 90.8671 85.1172C88.3208 83.5813 86.3403 81.4999 84.9257 78.8727C83.5111 76.2456 82.8038 73.3356 82.8038 70.1426C82.8038 66.8284 83.5111 63.8981 84.9257 61.3519C86.3808 58.7652 88.341 56.7241 90.8064 55.2286C93.3123 53.7332 96.1011 52.9855 99.1728 52.9855C101.76 52.9855 104.023 53.4099 105.963 54.2586C107.943 55.1074 109.621 56.2795 110.995 57.7749C112.369 59.2704 113.42 60.9881 114.147 62.9281C114.875 64.8277 115.239 66.889 115.239 69.112C115.239 69.6778 115.198 70.2639 115.117 70.8701C115.077 71.4764 114.976 72.0018 114.814 72.4464H89.3514V66.3838H110.328L106.569 69.2332C106.933 67.374 106.832 65.7169 106.266 64.2619C105.741 62.8069 104.851 61.655 103.598 60.8062C102.386 59.9575 100.911 59.5331 99.1728 59.5331C97.5157 59.5331 96.0405 59.9575 94.7471 60.8062C93.4538 61.6146 92.4635 62.8271 91.7765 64.4438C91.1298 66.0201 90.8873 67.9399 91.0489 70.2032C90.8873 72.2241 91.15 74.0227 91.8371 75.5989C92.5646 77.1348 93.6154 78.3271 94.9896 79.1759C96.4042 80.0246 98.0209 80.449 99.8397 80.449C101.658 80.449 103.194 80.065 104.447 79.2971C105.741 78.5292 106.751 77.4986 107.479 76.2052L113.905 79.3577C113.258 80.934 112.248 82.3284 110.874 83.5409C109.499 84.7535 107.863 85.7033 105.963 86.3904C104.104 87.0774 102.042 87.421 99.7791 87.421Z" fill="#004E71"/>
<path d="M68.5375 42.2824C67.6822 42.2824 66.9103 42.0935 66.2218 41.7155C65.5438 41.3274 65.0014 40.8013 64.5946 40.1374C64.1982 39.4734 64 38.7278 64 37.9004C64 37.073 64.1982 36.3325 64.5946 35.6788C64.991 35.0148 65.5334 34.4939 66.2218 34.1159C66.9103 33.738 67.6822 33.549 68.5375 33.549C69.1738 33.549 69.7632 33.6563 70.3056 33.8708C70.848 34.0853 71.3122 34.3866 71.6982 34.7748C72.0841 35.1527 72.3605 35.6021 72.5274 36.1231L70.4934 36.9811C70.3473 36.5623 70.097 36.2303 69.7423 35.9852C69.3981 35.74 68.9965 35.6175 68.5375 35.6175C68.1307 35.6175 67.7656 35.7145 67.4423 35.9086C67.1293 36.1027 66.879 36.3733 66.6912 36.7206C66.5139 37.0679 66.4252 37.4663 66.4252 37.9157C66.4252 38.3652 66.5139 38.7635 66.6912 39.1108C66.879 39.4581 67.1293 39.7288 67.4423 39.9229C67.7656 40.117 68.1307 40.214 68.5375 40.214C69.0069 40.214 69.4137 40.0914 69.758 39.8463C70.1022 39.6011 70.3473 39.2692 70.4934 38.8504L72.5274 39.7237C72.371 40.214 72.0998 40.6532 71.7138 41.0414C71.3279 41.4295 70.8637 41.736 70.3213 41.9607C69.7788 42.1752 69.1843 42.2824 68.5375 42.2824Z" fill="#004E71"/>
<path d="M73.4977 42.0986V30.5L75.8447 30.5V35.3876L75.5631 35.0199C75.7613 34.5194 76.0794 34.1517 76.5175 33.9168C76.9661 33.6716 77.4876 33.549 78.0822 33.549C78.7289 33.549 79.2922 33.6818 79.772 33.9474C80.2623 34.213 80.643 34.5858 80.9142 35.0659C81.1854 35.5358 81.3211 36.0873 81.3211 36.7206V42.0986H78.9741V37.2109C78.9741 36.8841 78.9063 36.6032 78.7706 36.3682C78.6455 36.1333 78.4629 35.9494 78.223 35.8166C77.9935 35.6839 77.7223 35.6175 77.4094 35.6175C77.1069 35.6175 76.8357 35.6839 76.5958 35.8166C76.3558 35.9494 76.1681 36.1333 76.0325 36.3682C75.9073 36.6032 75.8447 36.8841 75.8447 37.2109V42.0986H73.4977Z" fill="#004E71"/>
<path d="M85.0969 42.2824C84.4814 42.2824 83.9494 42.1854 83.5009 41.9913C83.0524 41.7972 82.7081 41.5215 82.4682 41.1639C82.2283 40.7962 82.1083 40.3621 82.1083 39.8616C82.1083 39.3917 82.2179 38.978 82.4369 38.6205C82.656 38.2528 82.9898 37.9464 83.4383 37.7012C83.8973 37.4561 84.4658 37.2824 85.1438 37.1803L87.7568 36.7666V38.452L85.5663 38.835C85.2325 38.8963 84.9769 39.0036 84.7996 39.1568C84.6222 39.2998 84.5336 39.5092 84.5336 39.785C84.5336 40.0403 84.6327 40.2395 84.8309 40.3825C85.0291 40.5255 85.2742 40.597 85.5663 40.597C85.9522 40.597 86.2912 40.5153 86.5833 40.3519C86.8754 40.1885 87.0996 39.9688 87.2561 39.6931C87.423 39.407 87.5064 39.0955 87.5064 38.7584V36.5827C87.5064 36.2661 87.3761 36.0005 87.1153 35.786C86.8649 35.5715 86.5207 35.4642 86.0826 35.4642C85.6654 35.4642 85.2951 35.5766 84.9717 35.8013C84.6588 36.026 84.4293 36.3223 84.2832 36.69L82.4056 35.8166C82.5725 35.3468 82.8385 34.9433 83.2036 34.6062C83.5687 34.2692 84.0068 34.0087 84.5179 33.8248C85.0291 33.641 85.5871 33.549 86.1921 33.549C86.9119 33.549 87.5482 33.6767 88.101 33.9321C88.6539 34.1874 89.0815 34.5449 89.384 35.0046C89.697 35.454 89.8534 35.9801 89.8534 36.5827V42.0986H87.6629V40.7503L88.1949 40.6583C87.9446 41.026 87.6681 41.3325 87.3656 41.5776C87.0631 41.8126 86.7241 41.9862 86.3486 42.0986C85.9731 42.2211 85.5558 42.2824 85.0969 42.2824Z" fill="#004E71"/>
<path d="M91.1629 42.0986V33.7329H93.3535V35.74L93.197 35.4489C93.3848 34.7441 93.6925 34.2692 94.1202 34.024C94.5583 33.7686 95.0746 33.641 95.6692 33.641H96.1699V35.6328H95.4345C94.8608 35.6328 94.3966 35.8064 94.0419 36.1537C93.6873 36.4908 93.5099 36.9709 93.5099 37.594V42.0986L91.1629 42.0986Z" fill="#004E71"/>
<path d="M96.7868 42.0986V33.7329H99.1338V42.0986H96.7868ZM96.7868 32.9821V30.6839L99.1338 30.6839V32.9821H96.7868Z" fill="#004E71"/>
<path d="M104.555 42.1905C103.522 42.1905 102.719 41.9198 102.145 41.3784C101.582 40.8269 101.3 40.0608 101.3 39.0802V35.7247H99.8606V33.7329H99.9388C100.377 33.7329 100.711 33.6256 100.94 33.4111C101.18 33.1966 101.3 32.8749 101.3 32.4459V31.833H103.647V33.7329H105.65V35.7247H103.647V38.927C103.647 39.213 103.699 39.453 103.804 39.6471C103.908 39.8309 104.07 39.9688 104.289 40.0608C104.508 40.1527 104.779 40.1987 105.102 40.1987C105.175 40.1987 105.259 40.1936 105.353 40.1834C105.446 40.1731 105.546 40.1629 105.65 40.1527V42.0986C105.493 42.119 105.316 42.1394 105.118 42.1599C104.92 42.1803 104.732 42.1905 104.555 42.1905Z" fill="#004E71"/>
<path d="M107.943 45.5C107.693 45.5 107.448 45.4796 107.208 45.4387C106.978 45.3979 106.775 45.3315 106.598 45.2395V43.355C106.744 43.3958 106.916 43.4316 107.114 43.4622C107.312 43.4928 107.495 43.5082 107.662 43.5082C108.121 43.5082 108.449 43.4009 108.647 43.1864C108.846 42.9719 109.007 42.7268 109.132 42.451L109.711 41.1486L109.68 43.0638L105.925 33.7329H108.444L110.932 40.3672H109.993L112.481 33.7329H115L111.339 42.88C111.109 43.4622 110.828 43.9474 110.494 44.3355C110.16 44.7237 109.779 45.0148 109.352 45.2089C108.934 45.403 108.465 45.5 107.943 45.5Z" fill="#004E71"/>
<path fill-rule="evenodd" clip-rule="evenodd" d="M62.2283 94.0518C71.9221 103.746 87.6388 103.746 97.3326 94.0518L102.561 99.2801C89.9796 111.861 69.5813 111.861 57 99.2801L62.2283 94.0518Z" fill="#004E71"/>
</svg>
