<svg xmlns="http://www.w3.org/2000/svg" width="1024" height="821" viewBox="0 0 1024 821" fill="none"><g clip-path="url(#clip0_422_8828)"><path fill-rule="evenodd" clip-rule="evenodd" d="M748.346 670.573C784.701 649.741 816.605 615.927 836.509 589.439L804.165 565.134L836.51 589.438C887.612 521.43 918.728 440.409 929.964 362.964C939.873 294.675 933.566 216.206 876.556 161.868C938.168 117.418 1007.4 86.0435 1080.52 72.0892L1080.52 72.0887C1105.15 67.3876 1149.54 64.3662 1196.42 64.8812C1243.75 65.4011 1287.92 69.4876 1313.36 76.7137C1334.88 82.8254 1357.27 70.3376 1363.39 48.8212C1369.5 27.3049 1357.01 4.9079 1335.49 -1.20387C1299.21 -11.511 1246.07 -15.5783 1197.31 -16.1139C1148.09 -16.6546 1097.6 -13.6331 1065.33 -7.47461C968.544 10.9962 879.139 55.0542 802.521 116.458C762.666 101.517 718.999 96.7319 676.393 98.2777C608.269 100.749 537.956 119.472 478.503 144.918C269.906 234.2 133.152 420.272 56.998 613.405L94.6748 628.261L56.998 613.405C20.3136 706.44 -0.380023 802.97 -4.96526 897.826L35.4875 899.781L-4.96526 897.826C-4.99397 898.42 -5.02341 899.021 -5.0532 899.629C-5.99933 918.956 -7.30419 945.611 3.10888 972.222C11.2597 993.051 34.7529 1003.33 55.5825 995.179C76.412 987.028 86.6902 963.535 78.5394 942.705C75.0894 933.888 74.8746 923.783 75.9403 901.737C80.0888 815.914 98.8467 728.09 132.352 643.117C203.559 462.529 328.081 297.408 510.375 219.384C562.647 197.011 623.117 181.264 679.33 179.224C697.888 178.551 715.467 179.378 731.857 181.75C708.56 206.469 686.984 232.923 667.352 260.777L694.987 280.256L667.351 260.778C613.135 337.699 570.384 427.443 567.435 522.196L567.434 522.197C566.108 564.843 572.015 623.052 613.304 662.54C633.971 682.306 658.739 690.971 684.059 690.361C707.968 689.784 730.037 681.065 748.346 670.573ZM830.879 198.431L815.933 216.268C815.157 215.618 814.373 214.977 813.579 214.344C784.242 242.391 757.387 273.636 733.559 307.442C683.928 377.857 650.653 452.183 648.395 524.716C647.224 562.373 654.239 589.609 669.288 604.001L669.289 604.002C674.013 608.52 677.78 609.488 682.108 609.384C687.846 609.246 696.538 606.904 708.074 600.294C731.409 586.923 755.53 562.37 771.754 540.78C814.085 484.444 840.365 416.387 849.804 351.334C858.711 289.943 848.579 243.623 815.933 216.269L830.881 198.43C830.88 198.431 830.88 198.431 830.879 198.431Z" fill="#EBE9DF"></path></g><defs><clipPath id="clip0_422_8828"><rect width="1024" height="821" fill="white"></rect></clipPath></defs></svg>