<svg xmlns="http://www.w3.org/2000/svg" width="108" height="100" viewBox="0 0 108 100" fill="none"><g filter="url(#filter0_d_422_9090)"><path fill-rule="evenodd" clip-rule="evenodd" d="M51.1737 50.0765L64.8034 36.571L66.6575 34.7331C71.2388 29.9892 71.2388 22.2253 66.6575 17.4814C62.4991 13.1712 55.7765 14.2501 51.331 18.2568C50.5124 18.9941 50.2249 19.3628 50.0026 19.3628C49.7804 19.3628 49.4931 18.9941 48.6688 18.2568C44.2286 14.2501 37.506 13.1712 33.3476 17.4814C28.7663 22.2253 28.7663 29.9892 33.3476 34.7331L35.2017 36.571L48.8259 50.0765C49.4169 50.5427 49.7097 50.7976 50.0024 50.8083C50.2956 50.7974 50.5884 50.5427 51.1737 50.0765Z" fill="#8DE969"></path><path fill-rule="evenodd" clip-rule="evenodd" d="M12.4911 49.1383L5.60572 38.6365C5.60025 38.5987 8.85318 29.4631 8.84244 29.4305L8.58756 28.0426C8.26236 26.4432 9.30865 24.8654 10.9133 24.5455C12.5128 24.2201 14.085 25.2666 14.4211 26.9365L15.7983 34.4131L18.2977 47.9565C17.0397 50.5045 14.0145 50.3908 12.4911 49.1383Z" fill="#F1D0A5"></path><path fill-rule="evenodd" clip-rule="evenodd" d="M25.367 53.909L23.4531 48.5199L23.8219 45.5271C23.5779 44.0633 24.5484 42.6427 26.0121 42.35C27.5084 42.0463 28.983 43.0277 29.2922 44.589L32.0842 59.5637L28.0396 58.0131L25.367 53.909Z" fill="#F1D0A5"></path><path fill-rule="evenodd" clip-rule="evenodd" d="M18.2975 47.9566L15.3157 41.1471L15.7981 34.4133C15.8307 33.0578 16.7958 31.8434 18.1836 31.567C19.7831 31.2416 21.3553 32.2881 21.6915 33.9633L23.8221 45.5277C23.8276 45.5604 23.8331 45.5873 23.8383 45.6199L25.3672 53.9096L21.3336 53.3619L18.2975 47.9566Z" fill="#F1D0A5"></path><path fill-rule="evenodd" clip-rule="evenodd" d="M25.3673 53.909L23.8384 45.6194L23.8222 45.5272C23.5782 44.0633 24.5487 42.6428 26.0124 42.3501C26.6847 42.2145 27.3515 42.3338 27.9153 42.6536C26.8419 43.1848 26.1968 44.3776 26.4027 45.603L26.4189 45.6952L28.04 56.1645L25.3673 53.909Z" fill="#E5C093"></path><path fill-rule="evenodd" clip-rule="evenodd" d="M18.2975 47.9567L15.7981 34.4134C15.8307 33.0579 16.7958 31.8435 18.1836 31.5671C19.436 31.3122 20.6721 31.8978 21.3065 32.9659C21.1004 32.9659 20.8891 32.9821 20.6776 33.0255C19.2952 33.3021 18.9752 33.8659 18.9481 35.2212L21.8323 50.9331L18.2975 47.9567Z" fill="#E5C093"></path><path fill-rule="evenodd" clip-rule="evenodd" d="M12.4911 49.1384C11.2766 42.5727 10.111 35.98 8.84247 29.4305L8.58758 28.0427C8.26239 26.4432 9.30868 24.8655 10.9134 24.5456C11.8458 24.3557 12.7675 24.6323 13.4452 25.2288C11.9434 25.6245 11.32 27.0016 11.6345 28.5468C12.7784 34.7491 13.8302 41.0219 14.9796 47.2245C14.8983 47.2516 14.8169 47.2733 14.7356 47.3005C14.085 47.5173 13.5104 47.886 13.0604 48.3632C12.838 48.5962 12.6483 48.8565 12.4911 49.1384Z" fill="#E5C093"></path><path fill-rule="evenodd" clip-rule="evenodd" d="M66.6577 34.7324C71.239 29.9885 71.239 22.2246 66.6577 17.4807C64.4511 15.1928 61.5235 14.4228 58.596 14.8023C62.2556 19.5789 61.9573 26.6053 57.696 31.0131L55.8419 32.8564L43.6489 44.9414L48.8265 50.0758C49.4175 50.542 49.7103 50.7969 50.003 50.8076C50.2958 50.7967 50.5886 50.542 51.1741 50.0758L64.8038 36.5703L66.6577 34.7324Z" fill="#73D04E"></path><path fill-rule="evenodd" clip-rule="evenodd" d="M17.1102 71.7144L11.3633 66.4554C9.32487 64.5904 7.04772 60.7138 6.40807 58.0843C5.45924 54.1808 4.32076 47.7288 3.95221 45.3163L1.50709 29.4361C1.20358 27.4355 3.21491 25.7818 5.23717 25.8089C7.22155 25.8361 8.46295 27.4841 8.84244 29.4306L8.86412 29.539L12.4911 49.1384C13.5917 47.1433 16.4922 46.33 18.2975 47.9566L32.0844 59.5644C35.4837 62.4271 37.8421 62.5245 39.4903 71.5029L39.2788 71.6329L35.0229 80.3943L24.4889 80.481C22.1141 76.648 20.7372 75.0378 17.1102 71.7144Z" fill="#FFE4C1"></path><path fill-rule="evenodd" clip-rule="evenodd" d="M36.1125 73.5253C34.4752 65.5284 32.1711 65.3331 28.902 62.5842L15.1151 50.9764C14.2584 50.2065 13.1526 49.9843 12.117 50.1741C12.1116 50.1741 12.1116 50.1741 12.1116 50.1741C12.1225 50.1415 12.1278 50.1036 12.1387 50.0712C12.2526 49.594 12.4586 49.1386 12.7567 48.7212C13.25 48.0596 13.9602 47.561 14.7356 47.3007C15.9284 46.8995 17.2836 47.0458 18.2975 47.9567L20.9323 50.1796L25.367 53.9096L28.0399 56.1651L32.0844 59.5645C35.4836 62.4272 37.842 62.5247 39.4903 71.503L36.1125 73.5253Z" fill="#F1D0A5"></path><path fill-rule="evenodd" clip-rule="evenodd" d="M25.2915 79.9981L39.279 71.6325L40.4501 70.9276C41.4313 70.3421 42.7163 70.662 43.3019 71.6432L46.647 77.2329C47.2325 78.2141 46.9071 79.4938 45.9313 80.0792L29.5909 89.8544C28.6151 90.4399 27.3302 90.12 26.7446 89.1387L23.3995 83.5491C22.814 82.5731 23.1394 81.2884 24.1151 80.7028L25.2915 79.9981Z" fill="#ECEAED"></path><path fill-rule="evenodd" clip-rule="evenodd" d="M45.931 80.0801C46.9068 79.4946 47.2322 78.2151 46.6466 77.2339L43.3015 71.6442C42.716 70.663 41.431 70.343 40.4498 70.9286C39.0076 71.796 37.5601 72.6581 36.1179 73.5257C37.0937 72.9401 38.3787 73.26 38.9642 74.2413L42.3039 79.8309C42.8894 80.8069 42.5695 82.0864 41.599 82.6719L45.931 80.0801Z" fill="#DAD8DB"></path><path fill-rule="evenodd" clip-rule="evenodd" d="M87.5142 49.1383L94.394 38.6365C94.405 38.5987 91.1521 29.4631 91.1628 29.4305L91.4177 28.0426C91.7376 26.4432 90.6911 24.8654 89.0919 24.5455C87.4925 24.2201 85.9202 25.2666 85.5841 26.9365L84.2069 34.4131L81.7075 47.9565C82.9655 50.5045 85.9853 50.3908 87.5142 49.1383Z" fill="#F1D0A5"></path><path fill-rule="evenodd" clip-rule="evenodd" d="M74.6381 53.909L76.5465 48.5199L76.1832 45.5271C76.4271 44.0633 75.4566 42.6427 73.993 42.35C72.4967 42.0463 71.0221 43.0277 70.7076 44.589L67.9209 59.5637L71.96 58.0131L74.6381 53.909Z" fill="#F1D0A5"></path><path fill-rule="evenodd" clip-rule="evenodd" d="M81.7079 47.9566L84.6842 41.1471L84.2071 34.4133C84.1745 33.0578 83.2042 31.8434 81.8215 31.567C80.2221 31.2416 78.6499 32.2881 78.3137 33.9633L76.1831 45.5277C76.1776 45.5604 76.1721 45.5873 76.1668 45.6199L74.6379 53.9096L78.6715 53.3619L81.7079 47.9566Z" fill="#F1D0A5"></path><path fill-rule="evenodd" clip-rule="evenodd" d="M74.6381 53.909L76.167 45.6194L76.1832 45.5272C76.4272 44.0633 75.4567 42.6428 73.993 42.3501C73.3207 42.2145 72.6485 42.3338 72.0901 42.6536C73.1635 43.1848 73.8086 44.3776 73.6028 45.603L73.5866 45.6952L71.9602 56.1645L74.6381 53.909Z" fill="#E5C093"></path><path fill-rule="evenodd" clip-rule="evenodd" d="M81.7079 47.9567L84.2073 34.4134C84.1747 33.0579 83.2043 31.8435 81.8217 31.5671C80.5694 31.3122 79.3333 31.8978 78.6934 32.9659C78.9049 32.9659 79.1108 32.9821 79.3223 33.0255C80.7102 33.3021 81.0247 33.8659 81.0573 35.2212L78.1731 50.9331L81.7079 47.9567Z" fill="#E5C093"></path><path fill-rule="evenodd" clip-rule="evenodd" d="M87.5141 49.1384C88.7286 42.5727 89.8942 35.98 91.1627 29.4305L91.4176 28.0427C91.7375 26.4432 90.6911 24.8655 89.0918 24.5456C88.1594 24.3557 87.2323 24.6323 86.56 25.2288C88.0618 25.6245 88.6852 27.0016 88.3707 28.5468C87.2213 34.7491 86.175 41.0219 85.0256 47.2245C85.1069 47.2516 85.1883 47.2733 85.2696 47.3005C85.9202 47.5173 86.4948 47.886 86.9448 48.3632C87.167 48.5962 87.3569 48.8565 87.5141 49.1384Z" fill="#E5C093"></path><path fill-rule="evenodd" clip-rule="evenodd" d="M82.895 71.7142L88.6418 66.4552C90.6803 64.5902 92.952 60.7136 93.5971 58.0841C94.5459 54.1806 95.6844 47.7286 96.053 45.3161L98.4926 29.4361C98.8016 27.4355 96.7848 25.7818 94.7626 25.8089C92.7782 25.8361 91.5368 27.4841 91.1627 29.4306L91.1411 29.539L87.5141 49.1384C86.4135 47.1433 83.5129 46.33 81.7077 47.9566L67.9208 59.5644C64.5215 62.4271 62.1631 62.5246 60.5149 71.5029L60.7264 71.6329L64.9823 80.3943L75.5108 80.481C77.8909 76.6478 79.2678 75.0376 82.895 71.7142Z" fill="#FFE4C1"></path><path fill-rule="evenodd" clip-rule="evenodd" d="M74.714 79.9981L60.7265 71.6325L59.5499 70.9276C58.5741 70.3421 57.2892 70.662 56.7036 71.6432L53.3585 77.2329C52.7729 78.2141 53.0983 79.4938 54.0741 80.0792L70.4091 89.8544C71.3903 90.4399 72.6753 90.12 73.2608 89.1387L76.6005 83.5491C77.1915 82.5731 76.8661 81.2884 75.8849 80.7028L74.714 79.9981Z" fill="#ECEAED"></path><path fill-rule="evenodd" clip-rule="evenodd" d="M75.5108 80.4812C77.8909 76.648 79.2679 75.0379 82.895 71.7144L88.6419 66.4555C90.6804 64.5904 92.952 60.7139 93.5972 58.0844C94.546 54.1808 95.6845 47.7289 96.053 45.3164L96.5354 42.1881L98.4927 29.4363C98.7095 28.043 97.7933 26.8123 96.5354 26.2103C95.9878 25.9447 95.3753 25.7982 94.7626 25.8092L93.2825 35.4598L92.3229 41.6892C92.3175 41.7381 92.3067 41.7869 92.3013 41.8355C91.9108 44.3457 90.7995 50.6295 89.8671 54.4572C89.222 57.0867 86.9503 60.9633 84.9118 62.8283L79.1649 68.0928C75.538 71.4107 74.1608 74.4144 71.7808 78.2476L74.7138 79.9988L75.5108 80.4812Z" fill="#F1D0A5"></path><path fill-rule="evenodd" clip-rule="evenodd" d="M73.2608 89.1391L76.6005 83.5494C77.1915 82.5734 76.8661 81.2887 75.8849 80.7031L71.7808 78.2471C72.5614 78.7133 72.9247 79.6133 72.7458 80.4537C72.7024 80.676 72.6212 80.8928 72.4964 81.0936L69.1567 86.6832C68.5712 87.6592 67.2972 87.9789 66.3159 87.4043L70.4091 89.8549C70.4146 89.8603 70.42 89.8603 70.4253 89.8658C71.4067 90.4348 72.6753 90.1148 73.2608 89.1391Z" fill="#DAD8DB"></path><path d="M72.7053 10.5871C72.9699 10.7839 73.2789 10.8789 73.5851 10.8789C74.0359 10.8789 74.481 10.6732 74.7707 10.2836L78.0291 5.90289C78.5156 5.24879 78.3799 4.32418 77.7258 3.83766C77.0715 3.35113 76.1469 3.48707 75.6603 4.14117L72.4019 8.52183C71.9154 9.17594 72.0512 10.1005 72.7053 10.5871Z" fill="#002B3E"></path><path d="M77.4381 18.4382C77.6028 19.1126 78.2065 19.5645 78.871 19.5645C78.9868 19.5645 79.1046 19.5508 79.2219 19.5221L84.4428 18.2481C85.2348 18.0549 85.72 17.2563 85.5268 16.4643C85.3335 15.6725 84.5346 15.187 83.7428 15.3803L78.5219 16.6544C77.7301 16.8477 77.245 17.6464 77.4381 18.4382Z" fill="#002B3E"></path><path d="M62.2721 6.92261C62.3143 7.70971 62.9657 8.31968 63.7446 8.31968C63.7713 8.31968 63.7979 8.31909 63.8249 8.31753C64.6389 8.27397 65.2635 7.57866 65.2198 6.7646L64.9325 1.39722C64.8887 0.583153 64.1901 -0.0428236 63.3797 0.00229359C62.5657 0.0458483 61.9413 0.741161 61.9848 1.55522L62.2721 6.92261Z" fill="#002B3E"></path><path d="M25.2346 10.2836C25.5245 10.673 25.9694 10.8789 26.4202 10.8789C26.7264 10.8789 27.0354 10.7839 27.2999 10.5871C27.954 10.1005 28.0897 9.17594 27.6034 8.52183L24.345 4.14117C23.8583 3.48707 22.9337 3.35113 22.2798 3.83766C21.6257 4.32418 21.4899 5.24879 21.9762 5.90289L25.2346 10.2836Z" fill="#002B3E"></path><path d="M15.5622 18.248L20.7831 19.5221C20.9006 19.5508 21.0182 19.5645 21.134 19.5645C21.7987 19.5645 22.4024 19.1125 22.5668 18.4381C22.7602 17.6461 22.2749 16.8475 21.4829 16.6543L16.262 15.3803C15.4704 15.1871 14.6713 15.6725 14.4782 16.4643C14.285 17.2563 14.7704 18.0549 15.5622 18.248Z" fill="#002B3E"></path><path d="M36.1802 8.31715C36.2072 8.31852 36.2337 8.3193 36.2603 8.3193C37.0394 8.3193 37.6908 7.70934 37.733 6.92203L38.0203 1.55465C38.0638 0.740589 37.4392 0.0454716 36.6251 0.00191696C35.8136 -0.0390987 35.116 0.582972 35.0724 1.39703L34.7851 6.76442C34.7416 7.57828 35.3662 8.2736 36.1802 8.31715Z" fill="#002B3E"></path><path d="M44.569 70.8869C44.0834 70.073 43.3068 69.4973 42.3824 69.266C41.7676 69.1121 41.1389 69.127 40.5459 69.2955C39.19 63.3193 37.3699 61.6975 34.6525 59.6883C34.258 59.3965 33.8531 59.0969 33.4365 58.7639L30.74 44.3027C30.5129 43.1545 29.8586 42.1699 28.8979 41.5299C27.9545 40.9016 26.8252 40.6795 25.7236 40.9025C25.3025 40.9865 24.9088 41.1311 24.5486 41.3244L23.1428 33.6953C23.1414 33.6877 23.1399 33.6801 23.1383 33.6725C22.8967 32.4678 22.2096 31.4365 21.2037 30.7687C20.2203 30.1158 19.0438 29.8854 17.8949 30.1187C17.4307 30.2113 16.9961 30.3795 16.5983 30.6043L15.8725 26.6686C15.8711 26.6607 15.8695 26.6529 15.868 26.6449C15.6262 25.4434 14.9393 24.4143 13.934 23.7475C12.9498 23.0945 11.7721 22.8639 10.6246 23.0978C9.46134 23.3297 8.45723 24.0041 7.79747 24.9965C7.78067 25.0219 7.76739 25.0486 7.75098 25.0742C7.02032 24.6068 6.1752 24.3451 5.25626 24.3328C3.68536 24.3092 2.1338 25.001 1.10938 26.1766C0.235944 27.1789 -0.1414 28.415 0.0476629 29.6605L2.49258 45.5391C2.86622 47.9836 4.01368 54.4838 4.97344 58.433C5.69434 61.3955 8.11348 65.4828 10.3664 67.5439L16.1125 72.8023C19.3033 75.7262 20.6557 77.2383 22.5215 80.1305C21.5225 81.2602 21.3178 82.9504 22.132 84.3076L25.4762 89.8957C25.9615 90.7094 26.7369 91.2852 27.6592 91.5164C27.9492 91.5893 28.2424 91.6252 28.5336 91.6252C29.1664 91.6252 29.7891 91.4553 30.3436 91.1242L35.841 87.8604C36.542 87.4441 36.7729 86.5387 36.3568 85.8375C35.9406 85.1363 35.035 84.9055 34.334 85.3217L28.8336 88.5871C28.6486 88.6973 28.4684 88.6756 28.3777 88.6527C28.2875 88.6301 28.1199 88.5648 28.0102 88.3809L24.6643 82.7896C24.4979 82.5123 24.5938 82.1363 24.8721 81.9693L41.2055 72.1949C41.3908 72.0842 41.5729 72.1064 41.665 72.1295C41.7561 72.1523 41.925 72.2178 42.0344 72.401L45.3785 77.9891C45.5463 78.2703 45.4471 78.6438 45.1553 78.823L39.9887 82.0109C39.2949 82.4391 39.0795 83.3484 39.5076 84.0422C39.9357 84.7359 40.8455 84.9514 41.5389 84.5232L46.7033 81.3367C48.3617 80.3176 48.9047 78.1373 47.9127 76.4746L44.569 70.8869ZM26.3057 43.7965C26.6371 43.7293 26.9764 43.7967 27.2611 43.9865C27.5635 44.1879 27.7705 44.5037 27.841 44.8598L29.8764 55.7754L26.7225 53.1199L25.2805 45.2943C25.1652 44.6125 25.6244 43.9322 26.3057 43.7965ZM18.4777 33.0127C18.8572 32.9355 19.2457 33.0121 19.5711 33.2281C19.9162 33.4572 20.1543 33.8174 20.2422 34.2434L22.3754 45.8195C22.3807 45.849 22.3848 45.8783 22.3906 45.9078C22.3916 45.9127 22.3932 45.9174 22.3943 45.9223L23.1695 50.1285L19.6529 47.1678L17.2826 34.3148C17.3533 33.6768 17.8356 33.1406 18.4777 33.0127ZM10.2561 26.6307C10.4781 26.2967 10.8139 26.0701 11.2074 25.9916C11.5871 25.9143 11.976 25.991 12.3022 26.2072C12.6467 26.4357 12.8842 26.7943 12.9719 27.2176L16.3666 45.626C15.6861 45.5773 14.9818 45.6631 14.2879 45.8935C13.9981 45.9898 13.7215 46.1102 13.457 46.2479L10.0387 27.7736C10.0371 27.7652 10.0354 27.7566 10.0338 27.748C9.95528 27.3613 10.0342 26.9644 10.2561 26.6307ZM24.966 78.4732C22.9727 75.3916 21.4703 73.7072 18.1066 70.6248L12.3598 65.3658C10.5684 63.727 8.41524 60.0896 7.84239 57.7352C6.90372 53.8732 5.77833 47.4945 5.41114 45.091L2.96641 29.2143C2.9086 28.8328 3.03262 28.4633 3.33555 28.1158C3.7838 27.6014 4.51934 27.2744 5.21739 27.2844C6.88575 27.3068 7.33731 29.3805 7.41075 29.7961C7.41134 29.799 7.41212 29.802 7.4127 29.8049L10.9543 48.9443C10.8318 49.2414 10.7357 49.55 10.6725 49.8689C10.4154 51.1631 10.4697 53.7541 13.7217 56.5654L22.0816 63.7926C22.6982 64.3258 23.6305 64.2578 24.1635 63.6412C24.6967 63.0246 24.6289 62.0924 24.0121 61.5594L15.6522 54.3322C14.0801 52.973 13.3397 51.5922 13.5678 50.4441C13.7561 49.4965 14.544 48.9193 15.2186 48.6953C15.591 48.5715 16.5399 48.359 17.3094 49.0527C17.3217 49.0639 31.1406 60.6986 31.1441 60.7016C31.1457 60.7029 31.1475 60.7043 31.1492 60.7057C31.7742 61.2309 32.3711 61.6725 32.8979 62.0619C35.1184 63.7037 36.6236 64.8205 37.8434 70.7674L24.966 78.4732Z" fill="#002B3E"></path><path d="M98.8975 26.1829C97.8877 25.021 96.3655 24.3327 94.8131 24.3327C94.7897 24.3327 94.7662 24.3327 94.743 24.3331C93.8268 24.3454 92.984 24.6064 92.2549 25.0724C91.6278 24.0855 90.6176 23.3456 89.3862 23.0993C88.2325 22.8646 87.0553 23.095 86.0711 23.7478C85.0659 24.4146 84.3791 25.4437 84.1371 26.6454C84.1356 26.6532 84.134 26.6612 84.1327 26.669L83.4071 30.604C83.0106 30.3802 82.5778 30.2124 82.1161 30.1204C80.9614 29.8855 79.785 30.1161 78.8016 30.7692C77.7957 31.437 77.1086 32.4683 76.8668 33.673C76.8653 33.6806 76.8637 33.6882 76.8625 33.6958L75.4569 41.3237C75.0938 41.1286 74.7006 40.9866 74.2868 40.9042C73.1821 40.68 72.0547 40.9015 71.1116 41.5274C70.1493 42.1661 69.492 43.1503 69.2608 44.2987C69.2592 44.3058 69.2578 44.313 69.2567 44.32L66.5688 58.7649C66.1524 59.0978 65.7475 59.3976 65.353 59.6892C62.6354 61.6985 60.8153 63.3204 59.4594 69.297C58.8666 69.1274 58.2366 69.1126 57.6202 69.2675C56.6975 69.4993 55.9219 70.0747 55.4377 70.8862L52.0918 76.4774C51.1008 78.1382 51.6438 80.3187 53.2998 81.3364L58.4666 84.5243C59.1598 84.9522 60.0698 84.7372 60.4977 84.0433C60.9258 83.3495 60.7106 82.4401 60.0166 82.012L54.8477 78.8228C54.5582 78.6448 54.459 78.2714 54.626 77.9917L57.9719 72.4005C58.0803 72.2188 58.2491 72.1534 58.3397 72.1306C58.4309 72.1077 58.6104 72.0856 58.7928 72.195L75.1295 81.9712C75.3137 82.0812 75.3795 82.2511 75.4024 82.3427C75.4246 82.4321 75.4461 82.6085 75.3342 82.7929L71.9938 88.3835C71.825 88.6667 71.4524 88.7577 71.1633 88.586L65.6659 85.3222C64.9653 84.9063 64.0596 85.137 63.6432 85.838C63.2272 86.539 63.458 87.4446 64.159 87.8608L69.6565 91.1247C70.2264 91.463 70.8534 91.6239 71.4727 91.6239C72.6848 91.6239 73.8664 91.0071 74.5287 89.8968L77.8639 84.3145C78.3536 83.5058 78.4965 82.552 78.2666 81.629C78.1258 81.0632 77.8543 80.5534 77.4799 80.1308C79.3506 77.2372 80.7036 75.7253 83.8922 72.8032L89.6389 67.5444C91.884 65.4901 94.3032 61.4042 95.0321 58.4329C95.9924 54.4817 97.1395 47.9827 97.5127 45.5405L99.9522 29.6616C100.143 28.4212 99.769 27.1856 98.8975 26.1829ZM85.6454 34.7437C85.6536 34.7067 85.6606 34.6696 85.666 34.6317L87.0332 27.2183C87.1211 26.795 87.3586 26.4366 87.7032 26.2081C88.0291 25.9917 88.4176 25.9147 88.8026 25.9935C89.5948 26.1519 90.1295 26.9579 89.9705 27.7538C89.9692 27.7608 89.9678 27.7677 89.9664 27.7745L86.5479 46.2485C86.2834 46.111 86.0069 45.9907 85.7172 45.8944C85.0233 45.664 84.3188 45.5782 83.6383 45.6269L85.6454 34.7437ZM77.6108 45.923C77.6118 45.9181 77.6135 45.9134 77.6145 45.9083C77.6164 45.8989 77.6168 45.8896 77.6186 45.8802L79.7629 34.244C79.851 33.8181 80.0891 33.4577 80.4342 33.2286C80.76 33.0126 81.1477 32.9364 81.5334 33.0144C82.17 33.1413 82.652 33.6774 82.7225 34.3157L80.3522 47.1685L76.8356 50.1292L77.6108 45.923ZM72.1561 44.8724C72.233 44.5017 72.4416 44.1874 72.7438 43.9868C73.0293 43.7974 73.3688 43.7298 73.7045 43.7981C74.0395 43.8649 74.3303 44.0618 74.5233 44.3524C74.7106 44.6347 74.7807 44.9685 74.7244 45.2964L73.2827 53.1206L70.1268 55.7776L72.1561 44.8724ZM97.0338 29.2122L94.594 45.0935C94.2272 47.494 93.102 53.8718 92.1637 57.7327C91.5844 60.0946 89.4309 63.7331 87.6455 65.3665L81.8981 70.6261C78.5362 73.7067 77.0336 75.3907 75.035 78.4745L62.1614 70.7706C63.3813 64.8216 64.8868 63.7046 67.1077 62.0626C67.6342 61.6733 82.6584 49.0856 82.6584 49.0856C82.6711 49.0751 82.6836 49.0642 82.6957 49.0532C83.4657 48.3597 84.4145 48.5724 84.7868 48.6958C85.4614 48.9198 86.2495 49.497 86.4375 50.4446C86.6657 51.5929 85.9254 52.9735 84.3534 54.3327L75.9932 61.5599C75.3766 62.0929 75.3088 63.0251 75.8418 63.6417C76.3752 64.2587 77.3075 64.3261 77.9239 63.7931L86.284 56.5659C89.536 53.7546 89.5903 51.1636 89.3332 49.8694C89.27 49.5505 89.1739 49.2417 89.0514 48.9446L92.5934 29.8044C92.5938 29.8019 92.5948 29.7993 92.5952 29.7966C92.6688 29.3812 93.12 27.3073 94.783 27.2849C95.4879 27.2761 96.2213 27.6032 96.6698 28.1192C96.9698 28.4651 97.0926 28.8325 97.0338 29.2122Z" fill="#002B3E"></path><path d="M67.6966 35.7809C67.7042 35.7733 67.7119 35.7657 67.7193 35.7579C72.8583 30.4362 72.8583 21.7772 67.7197 16.4559C65.4683 14.1225 62.3634 12.994 58.9783 13.2788C55.899 13.5376 52.8324 14.9159 50.3429 17.1593C50.2175 17.2722 50.1041 17.3768 50.0007 17.4733C49.8974 17.3772 49.7833 17.2727 49.6576 17.1602C47.1709 14.9161 44.1052 13.5378 41.0261 13.2788C37.6408 12.9933 34.5367 14.1224 32.2857 16.4554C27.1466 21.777 27.1466 30.436 32.2857 35.7577C32.2931 35.7653 32.3005 35.7729 32.3082 35.7804L34.9376 38.3882C35.5162 38.962 36.4507 38.9583 37.025 38.3796C37.599 37.8009 37.5951 36.8663 37.0164 36.2923L34.3988 33.6962C30.3619 29.5044 30.3656 22.6934 34.4097 18.5056C38.1375 14.6413 44.0291 16.0577 47.6845 19.3558C47.9302 19.5755 48.1255 19.761 48.2845 19.9118C48.8085 20.4087 49.2613 20.838 50.0025 20.838C50.7464 20.838 51.2009 20.4048 51.7275 19.9032C51.8847 19.7532 52.0775 19.5696 52.3189 19.3522C55.9738 16.0587 61.8685 14.6427 65.5958 18.5059C69.6392 22.6931 69.6429 29.5038 65.6068 33.6956L50.191 48.9716C50.191 48.9716 50.0367 49.1208 50.0005 49.1495C49.9666 49.1227 49.8068 48.9696 49.8068 48.9696L41.8414 41.0739C41.2626 40.5001 40.3279 40.504 39.7539 41.0831C39.18 41.662 39.1841 42.5966 39.763 43.1704L47.7869 51.1241C48.0585 51.3931 48.3943 51.6304 48.7103 51.8417C49.0968 52.1003 49.5306 52.2837 50.0025 52.2837C50.4669 52.2837 50.896 52.1059 51.2777 51.8526C51.599 51.6393 51.9371 51.397 52.2125 51.1243L67.6966 35.7809Z" fill="#002B3E"></path></g><defs><filter id="filter0_d_422_9090" x="0" y="0" width="108.001" height="99.625" filterUnits="userSpaceOnUse" color-interpolation-filters="sRGB"></filter></defs></svg>