<svg xmlns="http://www.w3.org/2000/svg" width="1807" height="951" viewBox="0 0 1807 951" fill="none"><path d="M21 63.518L1725.15 17.0049L1807 928.262L0 883.71L21 63.518Z" fill="#004E71"></path><path d="M488 887.25V950.268L193 887.25H488Z" fill="#004E71"></path><g filter="url(#filter0_d_422_8913)"><rect width="160.003" height="114.03" rx="57.0151" transform="matrix(0.967035 -0.254643 0.254135 0.967169 290 41.0127)" fill="white"></rect><g clip-path="url(#clip0_422_8913)"><path fill-rule="evenodd" clip-rule="evenodd" d="M418.076 49.0503C409.043 83.3545 378.514 104.373 342.78 95.8093C341.59 95.5241 340.36 96.2222 340.029 97.3567C339.703 98.5087 340.401 99.6713 341.591 99.9565C379.897 109.152 412.722 86.7621 422.408 50.0043C422.712 48.8581 421.986 47.7026 420.79 47.4378C419.599 47.1904 418.38 47.9041 418.076 49.0503Z" fill="#004E71"></path><path d="M365.767 76.0639C369.254 75.1458 371.374 71.7125 370.503 68.3955C369.631 65.0784 366.098 63.1338 362.611 64.0519C359.124 64.9701 357.004 68.4033 357.876 71.7204C358.748 75.0374 362.281 76.9821 365.767 76.0639Z" fill="#004E71"></path><path d="M390.227 62.7923C393.645 61.8921 395.724 58.5259 394.869 55.2737C394.015 52.0215 390.551 50.1148 387.132 51.015C383.713 51.9152 381.635 55.2814 382.489 58.5336C383.344 61.7858 386.808 63.6925 390.227 62.7923Z" fill="#004E71"></path></g><rect x="2.57803" y="1.50422" width="155.781" height="109.808" rx="54.904" transform="matrix(0.967035 -0.254643 0.254135 0.967169 289.703 41.7186)" stroke="#004E71" stroke-width="4.22222"></rect></g><defs><filter id="filter0_d_422_8913" x="290" y="0.268555" width="192.152" height="159.475" filterUnits="userSpaceOnUse" color-interpolation-filters="sRGB"></filter><clipPath id="clip0_422_8913"><rect width="93" height="46" fill="white" transform="matrix(0.967035 -0.254643 0.254135 0.967169 331.248 65.0801)"></rect></clipPath></defs></svg>