<svg width="1400" height="600" viewBox="0 0 1400 600" fill="none" xmlns="http://www.w3.org/2000/svg">
<g clip-path="url(#clip0_512_609)">
<path fill-rule="evenodd" clip-rule="evenodd" d="M841.538 582.798C880.445 580.912 922.698 566.095 952.13 551.715C1028.04 514.626 1092.44 456.793 1137.53 393.105C1179.45 333.884 1205.59 263.446 1176.37 194.622C1173.42 187.654 1170.07 180.919 1166.37 174.412C1260.32 154.429 1357.03 155.63 1447.84 182.07L1447.84 182.07C1475.69 190.18 1520.57 209.515 1564.94 232.778C1593.61 247.809 1621.3 264.079 1643.57 279.512L1549.54 282.967C1541.26 283.271 1534.8 290.229 1535.1 298.508C1535.41 306.787 1542.36 313.251 1550.64 312.947L1685.55 307.989C1693.83 307.685 1700.29 300.727 1699.99 292.448L1695.03 157.54C1694.73 149.261 1687.77 142.796 1679.49 143.101C1671.21 143.405 1664.75 150.363 1665.05 158.641L1668.8 260.635C1643.42 242.2 1611.12 223.115 1578.87 206.208C1533.73 182.544 1486.84 162.18 1456.22 153.266C1356.32 124.177 1250.28 124.099 1148.27 147.706C1120.22 112.426 1080.95 85.1719 1037.42 64.9123C976.108 36.3742 904.744 20.9195 839.545 16.5129C611.197 1.07967 401.105 105.533 240.889 246.992C164.265 314.646 100.671 392.83 52.5615 476.815L65.2046 484.058L52.5615 476.815L52.4242 477.055C41.8432 495.526 30.4521 515.411 28.0744 539.371C27.2564 547.615 33.2761 554.961 41.5199 555.779C49.7636 556.597 57.1097 550.577 57.9278 542.334C59.584 525.644 67.4952 511.1 78.593 491.727C125.038 410.648 186.527 335.01 260.745 269.481C417.217 131.327 619.747 31.7258 837.522 46.4446C899.835 50.6561 967.451 65.4349 1024.76 92.1102C1060.93 108.945 1092.36 130.205 1115.93 156.017C1067.68 169.664 1020.59 188.584 975.772 212.197C890.615 257.066 812.931 317.481 768.522 398.19L781.074 405.096L768.522 398.19C747.712 436.012 730.55 484.134 746.273 529.183C753.706 550.483 767.584 564.852 785.145 573.288C802.235 581.498 822.029 583.744 841.538 582.798ZM1135.73 181.702C1140.76 189.57 1145.13 197.783 1148.76 206.345C1171.87 260.794 1152.76 319.664 1113.04 375.772C1070.64 435.675 1010.01 490.045 938.96 524.761C911.567 538.145 873.441 551.216 840.086 552.833C823.464 553.639 809.157 551.541 798.135 546.246C787.584 541.178 779.339 532.884 774.597 519.298C763.306 486.945 774.888 448.854 794.806 412.652C835.245 339.157 907.208 282.233 989.757 238.738C1036.44 214.14 1085.55 194.917 1135.73 181.702Z" fill="#EBE9DF"/>
</g>
<defs>
<clipPath id="clip0_512_609">
<rect width="1400" height="600" fill="white"/>
</clipPath>
</defs>
</svg>
