<svg width="206" height="73" viewBox="0 0 206 73" fill="none" xmlns="http://www.w3.org/2000/svg">
<path d="M205.885 42.9796C206.254 44.0206 205.71 45.1639 204.669 45.5332C203.628 45.9025 202.484 45.3579 202.115 44.3169L205.885 42.9796ZM199.611 37.5035L201.06 36.1252L201.06 36.1252L199.611 37.5035ZM170.695 15.774L171.625 14.0032V14.0032L170.695 15.774ZM93.5652 5.88932L94.1764 7.79364L93.5652 5.88932ZM59.8003 35.849L61.7758 36.1614L61.7758 36.1614L59.8003 35.849ZM69.7457 56.8973L71.0567 55.387V55.387L69.7457 56.8973ZM95.8501 70.0908L95.4253 72.0451H95.4253L95.8501 70.0908ZM117.598 62.9171L115.607 62.7345V62.7345L117.598 62.9171ZM111.516 49.2371L112.989 47.8839L112.989 47.8839L111.516 49.2371ZM82.0746 33.5273L82.559 31.5869V31.5869L82.0746 33.5273ZM24.162 40.4786L25.1689 42.2067L25.1687 42.2068L24.162 40.4786ZM-1.52588e-05 62.479L5.33105 40.0087L22.1254 55.8607L-1.52588e-05 62.479ZM202.115 44.3169C201.43 42.3863 200.07 40.8887 198.162 38.8818L201.06 36.1252C202.881 38.0403 204.871 40.1223 205.885 42.9796L202.115 44.3169ZM198.162 38.8818C190.195 30.5055 180.591 23.2288 169.766 17.5447L171.625 14.0032C182.83 19.8864 192.787 27.4261 201.06 36.1252L198.162 38.8818ZM169.766 17.5447C146.934 5.55676 119.76 -0.417737 94.1764 7.79364L92.954 3.985C119.891 -4.66082 148.205 1.70606 171.625 14.0032L169.766 17.5447ZM94.1764 7.79364C86.8554 10.1434 79.2176 13.9195 73.1679 18.8166C67.1023 23.7265 62.8115 29.6117 61.7758 36.1614L57.8249 35.5366C59.0721 27.6493 64.1579 20.9637 70.6512 15.7076C77.1602 10.4386 85.2633 6.4534 92.954 3.985L94.1764 7.79364ZM61.7758 36.1614C60.6408 43.338 64.6434 49.8198 71.0567 55.387L68.4346 58.4077C61.6362 52.5062 56.3667 44.7572 57.8249 35.5366L61.7758 36.1614ZM71.0567 55.387C77.9028 61.33 86.7602 66.0679 96.275 68.1364L95.4253 72.0451C85.2034 69.823 75.7466 64.7551 68.4346 58.4077L71.0567 55.387ZM96.275 68.1364C99.9426 68.9337 104.874 69.3737 108.887 68.5853C110.886 68.1927 112.508 67.5237 113.643 66.5817C114.725 65.6843 115.447 64.476 115.607 62.7345L119.59 63.0998C119.331 65.9207 118.08 68.0975 116.198 69.6598C114.369 71.1776 112.038 72.0428 109.658 72.5103C104.914 73.4423 99.3893 72.9068 95.4253 72.0451L96.275 68.1364ZM115.607 62.7345C115.99 58.5608 113.501 54.3529 110.044 50.5904L112.989 47.8839C116.614 51.8287 120.136 57.1512 119.59 63.0998L115.607 62.7345ZM110.044 50.5904C103.037 42.9663 92.7551 38.2547 81.5902 35.4678L82.559 31.5869C94.1083 34.4697 105.241 39.4526 112.989 47.8839L110.044 50.5904ZM81.5902 35.4678C62.2686 30.645 41.7399 32.5515 25.1689 42.2067L23.1551 38.7506C40.769 28.4878 62.3973 26.5544 82.559 31.5869L81.5902 35.4678ZM25.1687 42.2068C22.3122 43.8709 17.9799 47.1359 13.6706 50.8958L11.0408 47.8818C15.4305 44.0518 19.9816 40.5993 23.1552 38.7505L25.1687 42.2068Z" fill="#FFD588"/>
</svg>
