<svg xmlns="http://www.w3.org/2000/svg" width="28" height="28" viewBox="0 0 28 28" fill="none"><path d="M25.6657 19.74V23.24C25.667 23.5649 25.6005 23.8866 25.4703 24.1843C25.3401 24.482 25.1492 24.7492 24.9098 24.9689C24.6704 25.1885 24.3877 25.3558 24.0799 25.4599C23.7721 25.5639 23.446 25.6026 23.1224 25.5734C19.5323 25.1833 16.0839 23.9565 13.054 21.9917C10.2352 20.2005 7.84525 17.8106 6.05403 14.9917C4.08233 11.9481 2.85531 8.48286 2.47236 4.8767C2.44321 4.55408 2.48155 4.22892 2.58494 3.92193C2.68834 3.61494 2.85453 3.33284 3.07292 3.09359C3.29131 2.85434 3.55713 2.66319 3.85345 2.53231C4.14977 2.40142 4.47009 2.33367 4.79403 2.33337H8.29403C8.86022 2.32779 9.40912 2.52829 9.83842 2.89749C10.2677 3.26668 10.5481 3.77939 10.6274 4.34003C10.7751 5.46011 11.0491 6.55988 11.444 7.61836C11.601 8.03594 11.635 8.48977 11.5419 8.92606C11.4489 9.36235 11.2327 9.76283 10.919 10.08L9.43736 11.5617C11.0982 14.4825 13.5166 16.9009 16.4374 18.5617L17.919 17.08C18.2362 16.7664 18.6367 16.5502 19.073 16.4571C19.5093 16.3641 19.9631 16.3981 20.3807 16.555C21.4392 16.95 22.5389 17.224 23.659 17.3717C24.2258 17.4516 24.7433 17.7371 25.1133 18.1738C25.4833 18.6104 25.6799 19.1679 25.6657 19.74Z" stroke="#004E71" stroke-width="2" stroke-linecap="round" stroke-linejoin="round"></path></svg>