<svg width="680" height="680" viewBox="0 0 680 680" fill="none" xmlns="http://www.w3.org/2000/svg">
<g clip-path="url(#clip0_483_625)">
<path fill-rule="evenodd" clip-rule="evenodd" d="M231.712 238.103C225.898 242.309 220.384 247.626 216.101 252.975C205.232 266.552 199.96 288.77 207.251 329.879C218.617 393.972 229.048 444.741 252.746 483.716C282.011 531.846 329.247 571.735 386.414 620.011C387.535 620.958 388.66 621.907 389.788 622.86C393.678 626.146 397.456 629.349 401.135 632.467C414.347 643.667 426.27 653.774 437.414 662.669C438 662.057 438.475 661.559 438.85 661.164C439.332 660.656 439.494 660.48 439.453 660.524C495.444 599.708 536.693 535.906 563.665 461.569C578.48 420.739 584.564 384.085 581.133 346.518C534.667 349.827 486.944 385.421 447.348 444.834C447.284 445.026 447.215 445.231 447.141 445.451C446.61 447.031 445.612 449.998 444.414 453.107C443.44 455.637 441.005 461.836 436.965 468.625C434.903 472.092 431.113 477.967 425.202 484.156C419.604 490.018 408.317 500.164 390.675 505.84C370.497 512.331 349.034 510.666 330.539 501.96C314.424 494.374 304.735 483.476 299.973 477.266C290.985 465.544 287.028 453.846 285.732 449.959C277.334 424.783 280.306 403.513 282.779 391.567C283.319 388.959 283.88 386.614 284.192 385.307L284.192 385.306L284.232 385.137C284.265 385.001 284.295 384.875 284.323 384.756C285.197 343.79 263.403 283.656 234.117 236.439C233.349 236.946 232.546 237.499 231.712 238.103ZM284.796 382.735C284.796 382.735 284.79 382.764 284.777 382.824C284.789 382.766 284.796 382.735 284.796 382.735ZM448.809 440.631C448.81 440.65 448.703 440.951 448.486 441.476C448.7 440.875 448.808 440.612 448.809 440.631ZM602.784 346.669C602.783 346.67 602.735 346.662 602.641 346.643C602.739 346.659 602.785 346.668 602.784 346.669ZM474.608 857.351C506.663 856.101 536.256 835.768 547.714 803.759C550.945 794.734 552.472 785.514 552.46 776.451C555.492 773.304 557.643 771.053 558.664 769.944C626.705 696.04 680.497 614.244 715.912 516.639C740.107 449.954 751.361 380.372 738.83 303.917C733.046 268.634 717.43 227.422 675.153 203.113C640.568 183.228 601.665 184.078 580.551 184.699C516.983 186.567 462.509 210.111 417.375 243.172C401.44 201.851 380.946 164.197 361.277 135.08C342.832 107.773 317.31 86.8867 285.672 76.6433C254.889 66.6772 225.041 68.9398 200.421 75.7713C153.464 88.8009 114.385 121.087 89.6149 152.026C35.231 219.957 37.5632 300.336 47.8019 358.069C47.9347 358.818 48.068 359.57 48.202 360.326C58.6386 419.203 72.8566 499.413 114.328 567.619C157.769 639.063 223.77 694.594 275.023 737.718C278.489 740.634 281.888 743.493 285.207 746.297C288.974 749.478 293.01 752.948 297.301 756.635C305.693 763.848 315.057 771.897 325.276 780.261C320.526 785.469 316.07 790.427 312.041 795.007C305.615 802.311 298.923 810.175 293.736 817.118C291.619 819.951 287.114 826.08 283.262 833.56L283.251 833.582C281.838 836.326 276.705 846.295 274.642 859.968C273.569 867.077 272.343 881.272 277.871 897.918C284.301 917.279 298.317 934.842 318.716 945.034C358.578 964.951 407.036 948.945 427.163 909.294C428.795 907.347 430.95 904.832 433.701 901.706C444.02 889.976 458.623 874.24 474.608 857.351ZM423.528 913.793C423.543 913.773 423.558 913.752 423.574 913.731C423.201 914.268 423.134 914.32 423.528 913.793Z" fill="#88E065"/>
</g>
<defs>
<clipPath id="clip0_483_625">
<rect width="680" height="680" fill="white"/>
</clipPath>
</defs>
</svg>
